<?xml version="1.0" encoding="UTF-8" standalone="no"?>
<!-- Created with Inkscape (http://www.inkscape.org/) -->

<svg
   xmlns:dc="http://purl.org/dc/elements/1.1/"
   xmlns:cc="http://creativecommons.org/ns#"
   xmlns:rdf="http://www.w3.org/1999/02/22-rdf-syntax-ns#"
   xmlns:svg="http://www.w3.org/2000/svg"
   xmlns="http://www.w3.org/2000/svg"
   xmlns:sodipodi="http://sodipodi.sourceforge.net/DTD/sodipodi-0.dtd"
   xmlns:inkscape="http://www.inkscape.org/namespaces/inkscape"
   width="134.79897"
   height="33.337383"
   id="svg6163"
   version="1.1"
   inkscape:version="0.48.0 r9654"
   sodipodi:docname="birds.svg"
   style="display:inline">
  <sodipodi:namedview
     id="base"
     pagecolor="#ffffff"
     bordercolor="#666666"
     borderopacity="1.0"
     inkscape:pageopacity="0.0"
     inkscape:pageshadow="2"
     inkscape:zoom="1.979899"
     inkscape:cx="54.114107"
     inkscape:cy="98.140566"
     inkscape:document-units="px"
     inkscape:current-layer="layer1"
     showgrid="false"
     inkscape:window-width="1440"
     inkscape:window-height="825"
     inkscape:window-x="0"
     inkscape:window-y="25"
     inkscape:window-maximized="1"
     fit-margin-top="0"
     fit-margin-left="0"
     fit-margin-right="0"
     fit-margin-bottom="0" />
  <defs
     id="defs6165" />
  <metadata
     id="metadata6168">
    <rdf:RDF>
      <cc:Work
         rdf:about="">
        <dc:format>image/svg+xml</dc:format>
        <dc:type
           rdf:resource="http://purl.org/dc/dcmitype/StillImage" />
        <dc:title />
      </cc:Work>
    </rdf:RDF>
  </metadata>
  <g
     id="layer1"
     inkscape:groupmode="layer"
     inkscape:label="Layer 1"
     transform="translate(-144.71875,-603.1851)"
     style="display:inline">
    <path
       style="fill:#000000;fill-opacity:1;stroke:#000000;stroke-width:0.95456624;stroke-opacity:1"
       d="m 153.60082,611.81589 c 7.78287,-4.97162 16.26144,-10.14362 25.83616,-9.91336 11.16828,-0.86322 23.02007,1.78954 31.63967,9.24754 5.35117,3.94592 10.1768,9.15327 12.04292,15.67728 2.83383,2.94375 2.09259,9.01308 -2.15396,10.20648 -3.48565,1.6409 -9.24472,2.96064 -11.40267,-1.27614 -3.74164,-7.86708 -1.4156,-17.69542 4.15265,-24.1031 4.37585,-5.43365 11.14265,-7.70683 17.11821,-10.83699 -1.10856,0.61754 -5.37,2.9876 -4.38931,2.38865 2.71851,-1.64894 7.64924,-4.65404 9.29991,-4.89604 -3.95789,3.02303 -7.73765,6.31269 -12.02962,8.86854 3.76497,-2.0982 7.56451,-4.13367 11.32814,-6.2343 -4.68032,2.58592 -9.33447,5.21936 -14.03761,7.76383 3.76129,-2.09998 7.52443,-4.19668 11.29656,-6.27715 -10.36181,4.70977 -15.0776,19.15645 -8.71479,28.80014 -0.82902,4.38688 -6.46092,4.606 -8.33728,8.24192 -3.7331,0.72015 -4.48037,-3.76544 -5.01633,-6.46524 -1.83631,-5.47385 -5.72491,-10.13552 -10.0975,-13.8309 -11.3572,-9.39501 -27.46461,-11.68407 -41.37765,-7.40277 -1.49537,0.20993 3.1945,-1.672 4.16723,-2.4383 1.06182,-0.61812 2.78266,-2.54746 0.4301,-1.23388 -3.25129,1.23878 -6.49989,2.48462 -9.75483,3.71379 z"
       id="bird1"
       inkscape:connector-curvature="0" />
  </g>
  <g
     inkscape:groupmode="layer"
     id="layer2"
     inkscape:label="Layer2"
     style="display:inline">
    <path
       style="fill:#000000;fill-opacity:1;stroke:#000000;stroke-width:0.95456624;stroke-opacity:1"
       d="m 5.5333043,3.90359 c 7.5923397,-5.03861 15.9815897,-9.95921 25.3787697,-9.97015 11.78645,-1.07561 23.95125,2.32366 33.26999,9.67473 4.55139,3.29291 8.66132,7.50083 10.82,12.7669 3.35319,2.88054 2.56418,9.46769 -2.01574,10.59746 -3.6064,2.89044 -9.35047,0.59937 -9.56256,-4.11729 -1.77498,-7.44407 2.53302,-14.84654 7.63455,-19.95142 4.50666,-4.18448 10.32884,-6.42658 15.76845,-9.09589 -1.15095,0.62963 -4.69223,2.85186 -1.63593,1.13845 2.73975,-1.34323 5.34896,-3.16502 8.3725,-3.78865 -1.99482,2.29462 -6.51956,5.97648 -7.27131,7.03214 2.37076,-0.80883 7.32497,-2.46233 7.99936,-3.16603 -4.32254,2.20303 -8.7661,4.15556 -13.2115,6.09452 1.8455,-1.56059 6.05122,-3.86088 6.6604,-4.76437 -9.04412,3.96725 -14.37459,15.18961 -10.82786,24.59288 2.00239,4.81643 -4.11633,5.78907 -6.50311,8.55569 -4.61299,3.49912 -6.33151,-3.68792 -7.39136,-6.89297 -5.01718,-10.71581 -16.14616,-17.16297 -27.36347,-19.593 -7.77145,-1.68997 -15.91774,-1.26373 -23.59253,0.71859 1.47026,-0.72484 6.42411,-4.42326 1.93935,-2.8076 -2.88196,0.81027 -5.7216897,1.78138 -8.4679597,2.97593"
       id="bird2"
       inkscape:connector-curvature="0" />
  </g>
  <g
     inkscape:groupmode="layer"
     id="layer3"
     inkscape:label="Layer3"
     style="display:inline">
    <path
       style="fill:#000000;fill-opacity:1;stroke:#000000;stroke-width:0.95456624;stroke-opacity:1"
       d="M 5.7054443,7.60805 C 13.486064,2.13739 22.428724,-2.54497 32.173154,-2.53587 c 14.14667,-0.84587 28.44011,4.73487 38.67202,14.4446 2.53101,2.83768 4.95615,5.88935 6.61038,9.28199 1.66438,4.25305 -2.65842,8.7497 -6.86142,8.51549 -3.37744,-0.59087 -4.352,-4.81257 -4.12546,-7.75812 0.9643,-6.40067 5.35891,-11.83108 10.26197,-15.80044 4.13209,-3.25733 9.19317,-5.531 13.9111,-7.42704 -3.32706,2.37226 2.8221,-1.01159 4.13614,-1.51387 2.0456,-1.32425 6.599546,-2.41922 3.44393,0.89101 -2.13655,2.00002 -1.82965,3.77647 1.28916,2.68147 1.576856,0.10266 5.205226,-1.29315 1.883086,0.0277 -3.901136,1.70624 -7.962966,2.99997 -11.999926,4.33847 0.73497,-1.12093 5.30552,-5.03784 1.46598,-3.05156 -6.50794,2.90551 -11.45934,9.35653 -11.79554,16.57624 -0.45897,3.59879 2.24911,8.39539 -1.95881,10.66322 -2.92871,2.50986 -8.6852,6.28098 -10.58013,0.68005 -2.23623,-6.48864 -6.36768,-12.41824 -12.2543,-16.08878 -11.65721,-7.59838 -26.3701,-9.76987 -39.88669,-6.84944 1.87391,-1.23121 2.44041,-3.52569 -0.36705,-2.13697 -2.87191,0.51529 -5.6983197,1.36061 -8.3120897,2.66992"
       id="bird3"
       inkscape:connector-curvature="0" />
  </g>
  <g
     inkscape:groupmode="layer"
     id="layer4"
     inkscape:label="Layer4"
     style="display:inline">
    <path
       style="fill:#000000;fill-opacity:1;stroke:#000000;stroke-width:0.95456624;stroke-opacity:1"
       d="M 2.8471343,10.30235 C 11.281384,3.98973 21.515934,-0.45958 32.221624,-0.02773 c 12.32152,0.31778 24.52191,4.73338 34.40277,12.06246 3.33111,2.9902 6.97283,6.09949 8.77097,10.26022 2.12042,4.21746 -3.46637,11.39349 -7.39802,6.75814 -2.53723,-3.20418 -0.53463,-7.64956 1.38887,-10.66337 4.35202,-6.16094 10.42399,-10.99343 17.37361,-13.92555 3.33592,-2.11733 6.40053,-1.89268 9.71844,-3.61846 2.53027,-1.55122 7.889066,-3.09968 7.015106,1.73151 1.66157,0.90444 7.90774,1.32149 2.81149,2.5268 -3.41682,0.82827 -9.517646,3.58871 -11.482286,2.23537 -0.66381,-3.99678 -5.80247,0.75907 -7.94191,1.6067 -5.59072,3.64063 -8.23883,10.52125 -7.85166,17.0134 0.27267,4.54292 -4.49275,6.9681 -8.0401,8.52353 -5.25728,1.64927 -6.56085,-5.45111 -8.74328,-8.70479 -5.07479,-8.9057 -15.27906,-12.8994 -24.66586,-15.50346 C 29.775434,8.37848 21.602414,8.20718 13.676684,9.4048 12.337134,5.63304 6.3352843,9.16145 3.6619643,10.00588 l -0.81498,0.29649"
       id="bird4"
       inkscape:connector-curvature="0" />
  </g>
  <g
     inkscape:groupmode="layer"
     id="layer5"
     inkscape:label="Layer5"
     style="display:inline">
    <path
       style="fill:#000000;fill-opacity:1;stroke:#000000;stroke-width:0.95456624;stroke-opacity:1"
       d="M 2.0091343,12.99664 C 12.140704,4.96624 25.555154,0.76234 38.406514,3.22019 c 13.51808,2.56196 27.77729,7.36883 36.58293,18.56121 2.70299,3.11716 2.0033,10.43589 -3.11423,10.05261 -5.22251,-2.77488 -1.52695,-9.42241 1.70263,-12.29216 5.45095,-5.91724 12.40512,-10.15134 19.84886,-13.07405 4.48796,-1.39522 9.038706,-2.79219 13.581396,-4.12055 3.2536,1.18978 8.43037,2.01707 9.81079,5.90235 -5.137,1.39163 -10.58241,3.42591 -15.90064,2.2828 -5.107366,-2.2997 -10.018006,1.57896 -14.136336,4.19508 -4.8571,3.87148 -5.41972,10.46118 -6.85235,16.06448 -2.28242,3.22761 -6.70105,6.40678 -10.72095,5.47868 -4.87695,-2.84831 -5.60419,-9.30195 -9.77739,-12.91549 -5.2696,-5.06059 -12.41223,-7.52334 -19.25808,-9.63823 -8.17495,-2.22767 -16.76242,-2.80104 -25.18386,-1.98239 -4.1285,-1.66176 -8.9461997,-0.96146 -12.7196797,1.18808 l -0.23288,0.0662 -0.0276,0.008"
       id="bird5"
       inkscape:connector-curvature="0" />
  </g>
  <g
     inkscape:groupmode="layer"
     id="layer6"
     inkscape:label="Layer6"
     style="display:inline">
    <path
       style="fill:#000000;fill-opacity:1;stroke:#000000;stroke-width:0.95456624;stroke-opacity:1"
       d="M 0.16097429,11.65033 C 11.036734,2.80684 26.126374,-1.33057 39.798564,2.57965 c 13.04004,2.28324 26.67298,6.69336 35.66726,16.93783 3.32316,2.87123 1.99484,11.47692 -3.31973,9.43616 -3.80708,-4.23992 0.72592,-8.75623 4.15304,-11.31797 8.11383,-7.1634 18.08563,-12.0215 28.592866,-14.49196 5.40731,-1.7277 11.4754,-1.87648 16.7087,-0.48971 4.14775,1.9445 2.86281,7.00324 -1.60956,6.6178 -5.97354,1.57483 -12.1362,0.47636 -18.18027,0.38579 -6.094626,0.47864 -12.715256,2.53614 -16.616106,7.49888 -3.38184,5.06003 -3.372,12.5716 -9.36387,15.66581 -5.40955,3.88849 -10.84012,-1.02893 -12.92012,-6.04262 -2.3525,-4.95105 -6.87742,-8.16741 -11.8429,-10.13956 C 39.456164,11.26291 26.496694,9.52398 13.799474,9.96426 9.2663743,10.08876 4.0597043,8.86578 0.16101429,11.65031"
       id="bird6"
       inkscape:connector-curvature="0" />
  </g>
  <g
     inkscape:groupmode="layer"
     id="layer7"
     inkscape:label="Layer7"
     style="display:inline">
    <path
       id="bird7"
       d="M -0.67703571,14.34464 C 9.8213643,5.83659 24.229584,1.29082 37.535194,4.9879 c 14.48191,1.91386 29.74888,5.65696 40.47138,16.24269 3.4157,3.16855 0.53567,13.84372 -4.60083,8.7859 -1.71339,-5.96043 5.32987,-8.76011 9.10519,-11.72726 12.45682,-8.78421 27.633886,-13.86406 42.922656,-13.65901 5.37143,-4.16417 12.02251,7.00789 4.47719,8.1121 -6.94419,2.48725 -14.27441,-0.65337 -21.38248,0.5926 -6.15942,0.63031 -12.693146,1.14052 -18.191586,4.17307 -6.41241,4.73794 -6.61443,15.16238 -14.8019,17.9237 -4.85863,2.19646 -9.38447,-1.96983 -11.63621,-5.93136 -2.20399,-4.61693 -6.09626,-8.15968 -11.05581,-9.62931 -12.65161,-5.64154 -26.65294,-7.70756 -40.43268,-7.53594 -4.4670997,2.66721 -8.5254097,-2.16657 -12.37845971,1.84367 l -0.70869,0.16589 0,0 z"
       style="fill:#000000;fill-opacity:1;stroke:#000000;stroke-opacity:1"
       inkscape:connector-curvature="0"
       inkscape:label="#bird1" />
  </g>
</svg>
