<?xml version="1.0" encoding="UTF-8" standalone="no"?>
<!-- Created with Inkscape (http://www.inkscape.org/) -->

<svg
   xmlns:dc="http://purl.org/dc/elements/1.1/"
   xmlns:cc="http://creativecommons.org/ns#"
   xmlns:rdf="http://www.w3.org/1999/02/22-rdf-syntax-ns#"
   xmlns:svg="http://www.w3.org/2000/svg"
   xmlns="http://www.w3.org/2000/svg"
   xmlns:sodipodi="http://sodipodi.sourceforge.net/DTD/sodipodi-0.dtd"
   xmlns:inkscape="http://www.inkscape.org/namespaces/inkscape"
   width="223.209"
   height="36.914204"
   id="svg4054"
   version="1.1"
   inkscape:version="0.48.0 r9654"
   sodipodi:docname="clouds.svg">
  <defs
     id="defs4056" />
  <sodipodi:namedview
     id="base"
     pagecolor="#ffffff"
     bordercolor="#666666"
     borderopacity="1.0"
     inkscape:pageopacity="0.0"
     inkscape:pageshadow="2"
     inkscape:zoom="2.8"
     inkscape:cx="111.6045"
     inkscape:cy="18.4571"
     inkscape:document-units="px"
     inkscape:current-layer="layer1"
     showgrid="false"
     fit-margin-top="0"
     fit-margin-left="0"
     fit-margin-right="0"
     fit-margin-bottom="0"
     inkscape:window-width="1174"
     inkscape:window-height="755"
     inkscape:window-x="0"
     inkscape:window-y="25"
     inkscape:window-maximized="0" />
  <metadata
     id="metadata4059">
    <rdf:RDF>
      <cc:Work
         rdf:about="">
        <dc:format>image/svg+xml</dc:format>
        <dc:type
           rdf:resource="http://purl.org/dc/dcmitype/StillImage" />
        <dc:title />
      </cc:Work>
    </rdf:RDF>
  </metadata>
  <g
     inkscape:label="Layer 1"
     inkscape:groupmode="layer"
     id="layer1"
     transform="translate(-263.3955,-513.90509)">
    <path
       style="fill:#ffffff;stroke:#ffffff;stroke-width:1px;stroke-linecap:butt;stroke-linejoin:miter;stroke-opacity:1;fill-opacity:1"
       d="m 221.07143,30.485632 c -0.28632,1.505317 -1.24278,0.08567 -1.78572,0.357143 -0.15058,0.07529 -0.20655,0.281851 -0.35714,0.357143 -0.23669,0.118344 -1.12924,-0.09978 -1.42857,0 -0.25254,0.08418 -0.46175,0.272963 -0.71429,0.357143 -0.38169,0.127232 -1.48374,-0.150984 -1.78571,0 -0.10648,0.05324 0.10648,0.303903 0,0.357143 -0.20591,0.102956 -1.93203,-0.105412 -2.14286,0 -0.15058,0.07529 -0.20656,0.28185 -0.35714,0.357143 -0.22447,0.112236 -1.2041,-0.112237 -1.42857,0 -0.10648,0.05324 0.10648,0.303903 0,0.357142 -0.11174,0.05587 -1.92155,0 -2.14286,0 -0.11905,0 -0.25066,-0.05324 -0.35714,0 -0.15059,0.07529 -0.20656,0.281851 -0.35714,0.357143 -0.14161,0.0708 -0.99842,-0.07301 -1.07143,0 -0.0842,0.08418 0.0842,0.272964 0,0.357143 -0.17857,0.178572 -0.89286,-0.178571 -1.07143,0 -0.0842,0.08418 0.10648,0.303903 0,0.357143 -0.28572,0.142857 -0.78572,-0.142857 -1.07143,0 -0.15058,0.07529 -0.20656,0.28185 -0.35714,0.357143 -0.10648,0.05324 -0.25067,-0.05324 -0.35715,0 -0.15058,0.07529 -0.20655,0.28185 -0.35714,0.357143 -0.21296,0.106479 -0.54593,-0.168359 -0.71428,0 -0.0842,0.08418 0.0842,0.272963 0,0.357143 -0.0554,0.05542 -0.93246,-0.04632 -1.07143,0 -0.25254,0.08418 -0.46175,0.272963 -0.71429,0.357142 -0.11294,0.03765 -0.27296,-0.08418 -0.35714,0 -0.0842,0.08418 0.0842,0.272964 0,0.357143 -0.0842,0.08418 -0.2381,0 -0.35714,0 -0.25315,0 -2.05052,-0.04617 -2.14286,0 -0.15059,0.07529 -0.20656,0.281851 -0.35714,0.357143 -0.0399,0.01993 -1.74586,0.01993 -1.78572,0 -0.15058,-0.07529 -0.20656,-0.28185 -0.35714,-0.357143 -0.21296,-0.106479 -0.54593,0.168359 -0.71429,0 -0.0842,-0.08418 0.0842,-0.272963 0,-0.357143 -0.0842,-0.08418 -0.27296,0.08418 -0.35714,0 -0.0842,-0.08418 0.0842,-0.272963 0,-0.357142 -0.0842,-0.08418 -0.25066,0.05324 -0.35714,0 -0.15059,-0.07529 -0.20656,-0.281851 -0.35715,-0.357143 -0.10648,-0.05324 -0.27296,0.08418 -0.35714,0 -0.0842,-0.08418 0.0842,-0.272964 0,-0.357143 -0.0842,-0.08418 -0.27296,0.08418 -0.35714,0 -0.0842,-0.08418 0.0842,-0.272964 0,-0.357143 -0.17857,-0.178571 -0.89286,0.178571 -1.07143,0 -0.0842,-0.08418 0.0842,-0.272964 0,-0.357143 -0.0842,-0.08418 -0.2381,0 -0.35714,0 -0.11905,0 -0.2381,0 -0.35715,0 -1.54761,0 -3.09523,0 -4.64285,0 -0.95238,0 0.11904,0.119048 -0.35715,-0.357143 -0.17857,-0.178571 -0.89285,0.178572 -1.07142,0 -0.0842,-0.08418 0.0842,-0.272963 0,-0.357143 -0.16836,-0.168358 -0.50133,0.10648 -0.71429,0 -0.15058,-0.07529 -0.20656,-0.28185 -0.35714,-0.357142 -0.21296,-0.10648 -0.50133,0.106479 -0.71429,0 -0.15058,-0.07529 -0.20656,-0.281851 -0.35714,-0.357143 -0.10648,-0.05324 -0.24421,0.03765 -0.35714,0 -0.25254,-0.08418 -0.46175,-0.272964 -0.71429,-0.357143 -0.11294,-0.03765 -0.25066,0.05324 -0.35714,0 -0.15059,-0.07529 -0.19743,-0.303903 -0.35715,-0.357143 -1.62581,0 -0.0204,0.168359 -1.07142,-0.357143 -0.28572,-0.142857 -0.78572,0.142857 -1.07143,0 -0.15059,-0.07529 -0.20656,-0.28185 -0.35715,-0.357143 -0.21295,-0.106479 -0.54592,0.168359 -0.71428,0 -0.0842,-0.08418 0.0842,-0.272963 0,-0.357143 -0.16836,-0.168358 -0.54593,0.168359 -0.71429,0 -0.0842,-0.08418 0.0842,-0.272963 0,-0.357142 -0.16836,-0.168359 -0.54592,0.168358 -0.71428,0 -0.0842,-0.08418 0.0842,-0.272964 0,-0.357143 -0.0842,-0.08418 -0.25067,0.05324 -0.35715,0 -0.15058,-0.07529 -0.20655,-0.281851 -0.35714,-0.357143 -0.10648,-0.05324 -0.27296,0.08418 -0.35714,0 -0.0842,-0.08418 0.0842,-0.272964 0,-0.357143 -0.0842,-0.08418 -0.27296,0.08418 -0.35714,0 -0.0842,-0.08418 0.0842,-0.272964 0,-0.357143 -0.0842,-0.08418 -0.2381,0 -0.35715,0 0,-0.119048 0.0842,-0.272963 0,-0.357143 -0.16836,-0.168359 -0.54592,0.168359 -0.71428,0 0,-0.952381 0.11904,0.119048 -0.35715,-0.357143 -0.0842,-0.08418 0.0532,-0.250663 0,-0.357142 -0.15058,-0.30117 -0.5275,-0.43412 -0.71428,-0.714286 -0.14766,-0.221491 -0.27296,-0.461748 -0.35714,-0.714286 -0.0377,-0.112938 0.0842,-0.272963 0,-0.357143 -0.0842,-0.08418 -0.27297,0.08418 -0.35715,0 -0.0842,-0.08418 0.0532,-0.250663 0,-0.357143 -0.0753,-0.150584 -0.28185,-0.206558 -0.35714,-0.357142 -0.0532,-0.10648 0.0842,-0.272964 0,-0.357143 -0.0842,-0.08418 -0.27296,0.08418 -0.35714,0 -0.0842,-0.08418 0.0532,-0.250664 0,-0.357143 -0.0753,-0.150585 -0.28185,-0.206558 -0.35715,-0.357143 -0.0532,-0.106479 0.0842,-0.272964 0,-0.357143 -0.0842,-0.08418 -0.25066,0.05324 -0.35714,0 -0.27282,-0.136409 -0.82959,-0.990815 -1.07143,-1.071428 -0.22587,-0.07529 -0.50132,0.106479 -0.71428,0 -0.10648,-0.05324 0.0842,-0.272964 0,-0.357143 -0.0842,-0.08418 -0.27297,0.08418 -0.35715,0 -0.0842,-0.08418 0.0842,-0.272964 0,-0.357143 -0.0842,-0.08418 -0.27296,0.08418 -0.35714,0 -0.0842,-0.08418 0,-0.238095 0,-0.357143 0,-0.238095 0.10648,-0.501327 0,-0.714286 -0.0532,-0.106479 -0.27296,0.08418 -0.35714,0 0,-0.952381 0.11905,0.119048 -0.35714,-0.357143 -0.16836,-0.168358 0.16835,-0.545927 0,-0.714285 -0.0842,-0.08418 -0.27297,0.08418 -0.35715,0 -0.0842,-0.08418 0.0842,-0.272964 0,-0.357143 -0.0842,-0.08418 -0.27296,0.08418 -0.35714,0 -0.0842,-0.08418 0,-0.238095 0,-0.357143 0,-0.119048 0,-0.238095 0,-0.357143 0,-0.160842 -0.0543,-0.962738 0,-1.071428 0.0753,-0.150585 0.2381,-0.238096 0.35714,-0.357143 0.11905,-0.119048 0.20656,-0.281851 0.35715,-0.357143 0.10648,-0.05324 0.27296,0.08418 0.35714,0 0.0842,-0.08418 -0.0842,-0.272964 0,-0.357143 0.0842,-0.08418 0.23809,0 0.35714,0 0.35714,0 0.71429,0 1.07143,0 0.83756,0 -0.16836,0.08418 0.71429,-0.357143 0.22654,-0.113271 1.5537,0.116004 1.78571,0 0.50226,-0.251128 0.21203,-0.463157 0.71429,-0.714286 0.21295,-0.106479 0.54592,0.168359 0.71428,0 0.0842,-0.08418 -0.0842,-0.272963 0,-0.357142 0.0842,-0.08418 0.25066,0.05324 0.35714,0 0.30117,-0.150585 0.41312,-0.563702 0.71429,-0.714286 0.10648,-0.05324 0.27296,0.08418 0.35714,0 0.0842,-0.08418 -0.0842,-0.272964 0,-0.357143 0.0842,-0.08418 0.27297,0.08418 0.35715,0 0.0842,-0.08418 -0.0842,-0.272964 0,-0.357143 0.0842,-0.08418 0.27296,0.08418 0.35714,0 0.0842,-0.08418 -0.0842,-0.272963 0,-0.357143 0.0842,-0.08418 0.27296,0.08418 0.35714,0 0.0842,-0.08418 -0.0842,-0.272963 0,-0.357143 0.0842,-0.08418 0.27296,0.08418 0.35714,0 0.0842,-0.08418 -0.0842,-0.272963 0,-0.357142 0.0842,-0.08418 0.27297,0.08418 0.35715,0 0.0842,-0.08418 -0.0842,-0.272964 0,-0.357143 0.0842,-0.08418 0.27296,0.08418 0.35714,0 0.0842,-0.08418 -0.0842,-0.272964 0,-0.357143 0.0115,-0.01149 0.98481,0 1.07143,0 1.42857,0 2.85714,0 4.28571,0 0.11905,0 0.2381,0 0.35715,0 0.11904,0 0.27296,0.08418 0.35714,0 0.73894,-0.738941 -1.1292,0.02889 0.35714,-0.714286 0.10648,-0.05324 0.25066,0.05324 0.35714,0 0.15059,-0.07529 0.20656,-0.28185 0.35715,-0.357143 0.10648,-0.05324 0.25066,0.05324 0.35714,0 0.15058,-0.07529 0.20656,-0.28185 0.35714,-0.357143 0.21296,-0.106479 0.50133,0.10648 0.71429,0 0.15058,-0.07529 0.20656,-0.2818502 0.35714,-0.3571425 0.10648,-0.05324 0.27296,0.084179 0.35714,0 0.0842,-0.084179 -0.0842,-0.2729635 0,-0.3571429 0.0842,-0.084179 0.25067,0.05324 0.35715,0 0.15058,-0.075292 0.20656,-0.2818505 0.35714,-0.3571428 0.10648,-0.05324 0.27296,0.084179 0.35714,0 0.0842,-0.084179 -0.0532,-0.2506634 0,-0.3571429 0.0753,-0.1505846 0.28185,-0.2065582 0.35715,-0.3571428 0.0532,-0.1064795 -0.0532,-0.2506635 0,-0.3571429 0.0342,-0.068364 1.3602,-1.3943892 1.42857,-1.4285714 0.21296,-0.1064794 0.50132,0.1064794 0.71428,0 0.15059,-0.075292 0.2381,-0.2380953 0.35715,-0.3571429 0.23809,0 0.4884,0.075292 0.71428,0 0.15972,-0.05324 0.20656,-0.2818505 0.35714,-0.3571428 0.21296,-0.1064795 0.50133,0.1064794 0.71429,0 0.15058,-0.075292 0.20656,-0.2818506 0.35714,-0.3571429 0.28572,-0.1428571 0.78572,0.1428572 1.07143,0 0.15059,-0.075292 0.20656,-0.2818505 0.35714,-0.3571428 0.14161,-0.070802 0.99842,0.073013 1.07143,0 0.0842,-0.084179 -0.0842,-0.2729635 0,-0.3571429 0.0842,-0.084179 0.2381,0 0.35715,0 0.11904,0 0.23809,0 0.35714,0 1.07143,0 2.14286,0 3.21428,0 0.24841,0 1.65656,-0.064577 1.78572,0 1.18449,1.1844937 -0.33672,-0.1683588 0.71428,0.3571429 0.15059,0.075292 0.20656,0.2818505 0.35715,0.3571428 0.10648,0.05324 0.25066,-0.05324 0.35714,0 0.0948,0.047413 1.02402,0.9766033 1.07143,1.0714286 0.0532,0.1064794 -0.0532,0.2506634 0,0.3571428 0.0954,0.1907443 0.8834,0.8834056 1.07143,1.0714286 0.11904,0.1190476 0.20656,0.2818505 0.35714,0.3571429 0.10648,0.05324 0.27296,-0.084179 0.35714,0 0.0842,0.084179 -0.0532,0.2506634 0,0.3571428 0.0753,0.1505847 0.2381,0.2380953 0.35715,0.3571429 0.11904,0.1190476 0.23809,0.2380952 0.35714,0.3571428 0.11905,0.1190477 0.23809,0.2380953 0.35714,0.3571429 0.11905,0.1190476 0.20656,0.2818505 0.35714,0.3571425 0.1087,0.05435 0.91059,0 1.07143,0 0.11905,0 0.27297,0.08418 0.35715,0 0.0842,-0.08418 -0.0842,-0.2729631 0,-0.3571425 0.16835,-0.1683588 0.50132,0.1064794 0.71428,0 0.15059,-0.075292 0.20656,-0.2818505 0.35714,-0.3571429 0.0923,-0.04617 1.88972,0 2.14286,0 0.11905,0 0.2381,0 0.35714,0 0.11905,0 0.27297,0.084179 0.35715,0 0.0842,-0.084179 -0.0842,-0.2729634 0,-0.3571428 0.0842,-0.084179 0.27296,0.084179 0.35714,0 0.16836,-0.1683588 -0.16836,-0.545927 0,-0.7142857 0.0842,-0.084179 0.27296,0.084179 0.35714,0 0.0842,-0.084179 -0.0842,-0.2729635 0,-0.3571429 0.16836,-0.1683587 0.54593,0.1683588 0.71429,0 0.0842,-0.084179 -0.0842,-0.2729635 0,-0.3571428 0.17857,-0.1785715 0.89286,0.1785714 1.07143,0 0.0842,-0.084179 -0.0842,-0.2729635 0,-0.3571429 0.16836,-0.1683588 0.50132,0.1064794 0.71428,0 0.15059,-0.075292 0.20656,-0.2818505 0.35715,-0.3571429 0.28571,-0.1428571 0.78571,0.1428572 1.07142,0 0.15059,-0.075292 0.20656,-0.2818505 0.35715,-0.3571428 0.0939,-0.046954 1.24181,0 1.42857,0 0.0866,0 1.05994,-0.011486 1.07143,0 0.0842,0.084179 -0.0842,0.2729635 0,0.3571428 0.0842,0.084179 0.25066,-0.05324 0.35714,0 0.15058,0.075292 0.20656,0.2818506 0.35714,0.3571429 0.10648,0.05324 0.27297,-0.084179 0.35715,0 0.0842,0.084179 -0.0842,0.2729635 0,0.3571429 0.0842,0.084179 0.27296,-0.084179 0.35714,0 0.0842,0.084179 -0.0842,0.2729634 0,0.3571428 0.0842,0.084179 0.27296,-0.084179 0.35714,0 0.0842,0.084179 -0.0842,0.2729635 0,0.3571429 0.0842,0.084179 0.27296,-0.084179 0.35714,0 0.16836,0.1683587 -0.10648,0.5013268 0,0.7142857 0.0753,0.1505846 0.28185,0.2065582 0.35715,0.3571428 0.10648,0.2129589 -0.10648,0.5013269 0,0.7142854 0.0753,0.150585 0.28185,0.206559 0.35714,0.357143 0.10648,0.212959 -0.16836,0.545927 0,0.714286 0.0842,0.08418 0.27296,-0.08418 0.35714,0 0.16836,0.168359 -0.16836,0.545927 0,0.714286 0.0842,0.08418 0.27297,-0.08418 0.35715,0 0.16835,0.168358 -0.16836,0.545927 0,0.714285 0.0842,0.08418 0.27296,-0.08418 0.35714,0 0.17857,0.178572 -0.17857,0.892858 0,1.071429 0.0842,0.08418 0.27296,-0.08418 0.35714,0 0.16836,0.168359 -0.16836,0.545927 0,0.714286 0.0842,0.08418 0.27296,-0.08418 0.35714,0 0.16836,0.168358 -0.10648,0.501327 0,0.714285 0.0753,0.150585 0.28185,0.206559 0.35715,0.357143 0.10648,0.212959 -0.16836,0.545927 0,0.714286 0.0842,0.08418 0.27296,-0.08418 0.35714,0 0.0859,0.08594 -0.0859,1.342632 0,1.428571 0.0842,0.08418 0.27296,-0.08418 0.35714,0 0.0842,0.08418 0,0.238096 0,0.357143 0,0.119048 0,0.238095 0,0.357143 0,1.428572 0,2.857143 0,4.285714 0,1.071429 0,2.142858 0,3.214286 0,0.119048 0,0.238095 0,0.357143 0,0.119048 0.0842,0.272963 0,0.357143 -0.0842,0.08418 -0.27296,-0.08418 -0.35714,0 -0.0842,0.08418 0.0532,0.250663 0,0.357143 -0.0474,0.09483 -0.9766,1.024016 -1.07143,1.071428 -0.10648,0.05324 -0.27296,-0.08418 -0.35714,0 -0.0842,0.08418 0.0532,0.250664 0,0.357143 -0.0753,0.150585 -0.2381,0.238095 -0.35714,0.357143 -0.11905,0.119048 -0.22781,0.249362 -0.35715,0.357143 -0.58559,0.487997 -1.19047,0.952381 -1.78571,1.428571 z"
       id="cloudfill"
       inkscape:connector-curvature="0"
       transform="translate(263.3955,513.90509)"
       inkscape:label="#path5653" />
    <g
       id="clouds"
       inkscape:label="#g3256"
       transform="translate(118.7935,513.90511)">
      <path
         id="path3035"
         style="fill-rule:evenodd"
         d="m 328.992,25.009 c 0.485,0 0.971,0 1.456,0 -0.155,1.139 -0.767,1.821 -0.485,3.397 0.038,1.741 3.173,0.386 3.882,1.456 -0.105,1.775 -0.666,1.861 0,3.396 4.298,-0.253 8.24,-0.153 10.19,1.941 3.903,0.021 5.173,-2.59 8.249,-3.396 -1.159,3.841 -8.122,6.916 -11.646,3.882 -8.587,1.451 -17.726,0.08 -26.688,0 1.229,-1.947 4.763,-1.941 7.278,-1.941 3.771,0 8.317,1.155 11.646,1.456 -0.99,-1.759 -1.322,-4.176 -3.882,-4.367 -1.07,-1.998 -1.07,-3.827 0,-5.824 z m -9.22,-1.455 c 0.134,1.913 -2.074,1.484 -1.94,3.396 0.828,3.297 6.07,2.812 8.249,3.397 -3.036,2.478 -9.199,0.312 -10.19,-2.426 0.72,-2.029 0.819,-4.681 3.881,-4.367 z m 0,-8.249 c -2.142,2.225 -7.143,1.591 -7.278,5.823 -0.355,2.782 3.54,1.312 3.396,3.882 -3.895,0.822 -4.104,-2.042 -4.853,-4.367 -15.645,-1.169 -25.919,-0.888 -42.216,-1.456 2.598,-3.239 11.769,-0.967 15.528,-0.485 1.871,0.24 3.729,-0.981 5.822,-0.97 1.908,0.01 3.579,1.031 5.338,0.97 2.153,-0.074 4.309,-1.083 6.794,-0.97 3.835,0.174 9.168,3.07 11.16,-1.456 -8.202,-1.01 -16.565,-1.623 -25.232,-1.456 -1.405,0.027 -2.973,0.525 -4.367,0.485 -1.942,-0.055 -3.879,-0.901 -5.823,-0.971 -2.467,-0.088 -4.848,1.019 -7.278,0.971 -1.725,-0.034 -3.862,-1.019 -5.338,-0.971 -6.204,0.203 -12.456,0.902 -18.924,0.485 -2.01,-0.129 -4.535,0.387 -5.823,-1.941 5.957,0.093 12.9,1.01 19.895,0.485 1.769,-0.133 3.598,-1.046 5.338,-0.971 1.811,0.078 3.53,1.36 5.338,1.456 2.187,0.116 4.521,-0.909 6.793,-0.97 5.262,-0.143 10.84,0.97 16.014,0.97 8.791,10e-4 17.07,-0.435 25.716,1.457 z m -4.851,-6.308 c -0.67,1.692 -2.488,0.793 -3.883,0.97 -6.547,0.834 -13.659,1.113 -22.32,0.971 -2.379,-0.039 -4.818,-1.286 -7.279,-1.456 -2.741,-0.189 -5.402,0.9 -8.249,0.97 -1.162,0.028 -2.629,-0.88 -3.882,-0.97 -2.358,-0.17 -4.692,0.663 -6.793,0.485 -1.649,-0.139 -3.247,-0.94 -4.853,-0.97 -2.075,-0.04 -4.229,0.824 -6.308,0.97 -11.69,0.823 -24.206,-2.05 -35.908,-1.456 4.252,-2.048 11.857,-1.155 17.954,-0.97 3.668,0.11 7.59,0.279 11.16,0.485 1.28,0.074 2.197,0.832 3.396,0.971 3.189,0.37 6.004,-0.964 9.22,-0.971 3.146,-0.006 6.934,-0.09 10.676,0 2.55,0.062 4.871,0.972 7.278,0.971 1.706,-10e-4 3.663,-0.966 5.338,-0.971 1.922,-0.005 3.896,0.773 5.822,0.971 5.45,0.558 12.123,0.801 17.469,0.485 1.106,-0.065 2.286,-0.955 3.396,-0.971 2.705,-0.039 5.137,1.432 7.766,0.486 z M 144.602,1.232 c 2.242,-2.387 4.312,-0.589 6.793,-0.485 2.437,0.103 4.853,-0.506 7.279,-0.485 3.417,0.029 6.704,0.893 10.19,0.97 5.219,0.117 10.57,-1.08 16.013,-0.485 0.842,0.092 2.007,0.926 2.911,0.97 4.205,0.206 8.712,-0.941 13.102,-0.485 10.995,1.143 24.05,-0.321 33.967,0.971 1.036,0.135 2.27,0.88 3.396,0.971 6.945,0.556 13.86,-1.115 20.38,-0.485 1.218,0.118 2.686,0.924 3.882,0.97 5.067,0.195 10.011,-0.67 15.042,-0.485 17.953,0.659 35.593,-0.646 52.892,1.941 1.269,-0.137 2.087,0.177 1.94,1.456 2.648,-1.922 7.384,-3.263 11.646,-2.912 1.961,0.162 3.696,2.352 5.337,0.971 1.221,1.044 1.886,2.644 3.397,3.396 1.893,-0.534 4.519,-0.333 6.308,-0.97 0.363,-1.495 -1.673,-0.592 -0.971,-2.426 3.8,0.961 7.21,-0.239 9.705,1.456 -0.658,3.009 -4.173,0.325 -6.308,1.456 -1.784,0.318 -2.417,1.789 -3.397,2.911 -1.964,-1.667 -4.255,-1.611 -5.822,0.485 -1.837,-0.59 -1.679,-3.174 -2.912,-4.367 -6.547,-2.312 -18.973,-1.16 -17.953,6.793 -3.141,-3.995 -9.053,-2.605 -12.616,0 2.053,-3.386 -1.016,-1.874 -1.941,-4.367 3.346,-0.484 12.145,1.666 14.558,-0.971 0.092,-0.393 0.486,-0.483 0.485,-0.97 -5.374,0.672 -10.142,-1.597 -15.528,-1.941 -7.238,-0.462 -14.925,0.927 -22.32,0.485 -1.116,-0.066 -2.165,-0.825 -3.397,-0.97 -1.514,-0.179 -3.113,0.524 -4.853,0.485 -1.702,-0.038 -3.4,-0.934 -4.852,-0.971 -2.291,-0.058 -4.456,0.897 -6.794,0.971 C 263.556,5.448 251.082,4.252 240.68,4.144 232.819,4.062 224.365,3.082 214.962,3.659 207.2,4.136 198.04,2.047 190.215,2.689 189.517,2.746 188.054,3.218 187.303,3.174 186.065,3.101 184.712,2.238 183.421,2.203 170.504,1.855 157.559,3.386 144.602,1.232 z m 91.71,12.617 c -7.371,1.33 -14.852,-0.117 -23.292,0 -13.217,0.184 -27.383,-4.555 -40.76,-2.426 0.495,-0.974 2.588,-1.786 3.396,-1.941 4.023,-0.773 8.428,0.811 12.131,0.97 1.64,0.071 3.213,-0.472 4.853,-0.485 5.23,-0.042 10.312,2.037 16.013,1.941 5.302,-0.089 12.404,-0.199 18.439,1.456 2.439,-0.801 7.618,-1.942 9.22,0.485 z"
         inkscape:connector-curvature="0" />
    </g>
  </g>
</svg>
