<?xml version="1.0" encoding="UTF-8" standalone="no"?>
<!-- Created with Inkscape (http://www.inkscape.org/) -->

<svg
   xmlns:dc="http://purl.org/dc/elements/1.1/"
   xmlns:cc="http://creativecommons.org/ns#"
   xmlns:rdf="http://www.w3.org/1999/02/22-rdf-syntax-ns#"
   xmlns:svg="http://www.w3.org/2000/svg"
   xmlns="http://www.w3.org/2000/svg"
   xmlns:sodipodi="http://sodipodi.sourceforge.net/DTD/sodipodi-0.dtd"
   xmlns:inkscape="http://www.inkscape.org/namespaces/inkscape"
   width="491.07217"
   height="124.72829"
   id="svg2"
   version="1.1"
   inkscape:version="0.48.0 r9654"
   sodipodi:docname="drawing.svg"
   inkscape:export-filename="/home/milez/sketchbook/scene/drawing.png"
   inkscape:export-xdpi="173.5"
   inkscape:export-ydpi="173.5">
  <defs
     id="defs4" />
  <sodipodi:namedview
     id="base"
     pagecolor="#ffffff"
     bordercolor="#666666"
     borderopacity="1.0"
     inkscape:pageopacity="0.0"
     inkscape:pageshadow="2"
     inkscape:zoom="2.8"
     inkscape:cx="242.59997"
     inkscape:cy="57.322032"
     inkscape:document-units="px"
     inkscape:current-layer="g3021"
     showgrid="false"
     fit-margin-top="0"
     fit-margin-left="0"
     fit-margin-right="0"
     fit-margin-bottom="0"
     inkscape:window-width="1440"
     inkscape:window-height="825"
     inkscape:window-x="0"
     inkscape:window-y="25"
     inkscape:window-maximized="1" />
  <metadata
     id="metadata7">
    <rdf:RDF>
      <cc:Work
         rdf:about="">
        <dc:format>image/svg+xml</dc:format>
        <dc:type
           rdf:resource="http://purl.org/dc/dcmitype/StillImage" />
        <dc:title />
      </cc:Work>
    </rdf:RDF>
  </metadata>
  <g
     inkscape:label="Layer 1"
     inkscape:groupmode="layer"
     id="layer1"
     transform="translate(-628.74963,-595.71233)">
    <g
       id="g3021"
       transform="translate(628.74963,595.71235)">
      <path
         style="fill:#ffffff;fill-opacity:1;stroke:#ffffff;stroke-width:1px;stroke-linecap:butt;stroke-linejoin:miter;stroke-opacity:1"
         d="m -7.4999955,31.15684 34.9999895,-11.428572 13.214291,-6.428571 7.500001,3.928571 6.071429,-10.3571439 10.714286,-2.857143 7.5,3.928572 3.214285,12.1428579 1.785715,12.142857 20.357142,13.928572 25.357147,-3.928572 21.42857,-15.714285 7.5,-1.071429 14.64286,12.142857 7.85714,8.214286 13.57143,-0.714286 18.21428,8.214286 21.42857,-11.428572 13.21429,-9.285714 L 250,30.799697 258.92857,34.371125 267.5,42.228268 283.21429,49.371125 300,60.085411 314.28572,58.65684 345,45.442554 l 11.42857,-9.642857 7.5,-5 12.5,-2.5 5,3.214286 6.42857,-3.571429 3.57143,-7.5 3.92857,-4.642857 7.5,-1.071429 6.07143,3.214286 2.85715,0.357143 3.57142,7.142857 4.28572,2.142857 3.57143,7.142857 4.64285,3.928572 9.28572,4.285714 14.64286,-6.785714 -0.71429,-12.857143 1.78572,-4.642857 8.21428,1.785714 8.92857,6.428571 3.92857,6.428572 6.07143,0.357143 25.71429,21.785714 8.57143,41.428574 -221.07143,-2.5 -308.928576,-8.571431 z"
         id="horizoncontour"
         inkscape:connector-curvature="0"
         inkscape:label="#path3264" />
      <path
         id="path3025"
         d="M 76.183,30.347 C 74.312,29.295 73.742,25.497 74.727,23.068 73.117,19.502 71.428,16.015 71.33,10.937 70.66,9.019 68.075,9.016 67.934,6.57 63.853,5.085 58.635,5.697 55.318,7.541 c -4.799,3.159 -5.575,9.088 -9.22,13.101 -1.856,2.044 -5.419,4.013 -8.249,5.823 -2.889,1.847 -5.58,4.14 -8.249,5.823 -2.034,1.283 -4.796,1.899 -6.793,3.396 -2.647,1.985 -6.94,6.122 -11.161,6.793 -0.171,-2.262 2.564,-2.462 3.882,-3.396 3.84,-2.724 7.994,-6.622 13.101,-8.734 5.308,-4.397 12.564,-6.846 16.499,-12.616 -2.159,-4.336 -9.875,-1.98 -14.072,0 -1.431,0.675 -2.467,2.155 -3.882,2.911 -0.958,0.512 -2.249,0.438 -3.396,0.971 -3.537,1.64 -9.519,5.425 -14.557,4.853 2.223,-2.306 5.375,-3.683 9.705,-3.882 2.396,-1.163 3.958,-3.158 7.279,-3.396 3.992,-3.61 9.338,-5.866 16.983,-5.823 0.948,0.669 2.555,0.679 2.911,1.941 3.104,-2.47 3.62,-5.987 6.308,-8.249 2.553,-2.148 5.48,-2.146 8.734,-2.912 2.739,-0.645 2.792,-1.419 5.823,0 1.113,0.521 4.954,3.102 5.823,4.853 0.908,1.829 0.368,4.102 0.97,6.308 1.095,4.006 4.74,8.588 2.426,15.041 z"
         style="fill-rule:evenodd"
         inkscape:connector-curvature="0" />
      <path
         id="path3037"
         d="M 7.764,26.95 C 6.366,29.272 2.8,29.427 0,30.347 0,29.538 0,28.729 0,27.921 3.187,28.197 4.696,26.794 7.764,26.95 z"
         style="fill-rule:evenodd"
         inkscape:connector-curvature="0" />
      <path
         id="path3039"
         d="m 438.171,30.347 c -0.234,3.407 -7.341,4.633 -9.219,1.941 1.449,-1.41 7.076,1.312 8.249,-2.426 0.564,-0.079 0.863,0.107 0.97,0.485 z"
         style="fill-rule:evenodd"
         inkscape:connector-curvature="0" />
      <path
         id="path3041"
         d="m 477.961,36.17 c 0.784,-0.137 0.835,0.458 1.456,0.485 -0.985,7.076 2.825,11.106 5.337,16.013 -3.318,-0.235 -6.847,-7.739 -7.278,-12.131 -0.153,-1.548 -0.184,-3.033 0.485,-4.367 z"
         style="fill-rule:evenodd"
         inkscape:connector-curvature="0" />
      <path
         id="path3043"
         d="m 243.105,41.993 c -2.408,1.809 -5.197,0.976 -7.764,1.456 -2.5,0.467 -4.898,2.024 -8.249,1.456 3.799,-2.682 10.272,-3.573 16.013,-2.912 z"
         style="fill-rule:evenodd"
         inkscape:connector-curvature="0" />
      <path
         id="path3045"
         d="m 402.264,43.934 c -1.324,-0.044 -0.977,0.809 -1.941,0 -0.383,-1.869 2.323,-1.869 1.941,0 z"
         style="fill-rule:evenodd"
         inkscape:connector-curvature="0" />
      <path
         id="path3047"
         d="m 383.824,43.449 c 0.485,0 0.971,0 1.456,0 -3.405,10.829 -8.362,20.104 -16.013,26.688 2.268,-4.283 5.237,-7.998 7.764,-12.131 2.508,-4.103 4.721,-8.407 6.793,-13.102 0,-0.485 0,-0.97 0,-1.455 z"
         style="fill-rule:evenodd"
         inkscape:connector-curvature="0" />
      <path
         id="path3049"
         d="m 413.424,53.153 c 1.823,0.061 1.292,5.251 -0.485,4.853 0.191,-2.589 -0.819,-3.378 0.485,-4.853 z"
         style="fill-rule:evenodd"
         inkscape:connector-curvature="0" />
      <path
         id="path3051"
         d="m 276.587,53.639 c -4.368,2.014 -7.219,2.134 -11.646,2.426 2.861,-1.83 7.435,-1.946 11.646,-2.426 z"
         style="fill-rule:evenodd"
         inkscape:connector-curvature="0" />
      <path
         id="path3053"
         d="m 183.906,55.58 c -2.581,0.978 -6.874,0.243 -9.705,0.97 1.615,-3.069 6.579,-1.331 9.705,-0.97 z"
         style="fill-rule:evenodd"
         inkscape:connector-curvature="0" />
      <path
         id="path3055"
         d="m 455.154,57.035 c 0.485,0 0.971,0 1.456,0 -0.296,1.16 0.609,3.521 -0.485,3.882 -1.914,0.296 -0.57,-2.664 -0.971,-3.882 z"
         style="fill-rule:evenodd"
         inkscape:connector-curvature="0" />
      <path
         id="path3057"
         d="m 427.011,64.314 c 1.466,1.309 -1.598,5.606 -3.396,6.793 -0.025,-3.421 2.705,-4.087 3.396,-6.793 z"
         style="fill-rule:evenodd"
         inkscape:connector-curvature="0" />
      <path
         id="path3059"
         d="m 424.585,64.799 c -2.025,2.342 -3.142,5.594 -5.338,7.764 -0.056,-2.49 1.837,-7.215 5.338,-7.764 z"
         style="fill-rule:evenodd"
         inkscape:connector-curvature="0" />
      <path
         id="path3061"
         d="m 416.82,65.284 c 0.784,-0.137 0.836,0.458 1.456,0.485 -1.312,1.6 -1.592,4.23 -4.367,4.367 0.408,-2.179 2.287,-2.888 2.911,-4.852 z"
         style="fill-rule:evenodd"
         inkscape:connector-curvature="0" />
      <path
         id="path3063"
         d="m 293.57,68.681 c -2.279,1.316 -5.079,-0.253 -7.279,0.485 1.787,-1.645 5.767,-0.727 7.279,-0.485 z"
         style="fill-rule:evenodd"
         inkscape:connector-curvature="0" />
      <path
         id="path3065"
         d="m 285.806,68.681 c 0.193,1.811 -3.03,0.204 -3.396,1.456 -1.522,-1.241 2.418,-1.108 3.396,-1.456 z"
         style="fill-rule:evenodd"
         inkscape:connector-curvature="0" />
      <path
         id="path3067"
         d="m 368.297,71.593 c 0.344,2.382 -2.225,1.848 -0.971,3.882 -1.543,0.074 -2.135,1.1 -3.882,0.97 0.831,-2.404 2.752,-3.718 4.853,-4.852 z"
         style="fill-rule:evenodd"
         inkscape:connector-curvature="0" />
      <path
         id="path3069"
         d="m 266.882,76.93 c -3.543,0.104 -6.646,-1.475 -9.705,-1.94 -1.751,-0.267 -4.356,1.279 -5.338,-0.971 3.744,-0.838 9.05,-0.341 12.616,0.971 0.816,0.299 2.325,1.097 2.427,1.94 z"
         style="fill-rule:evenodd"
         inkscape:connector-curvature="0" />
      <path
         id="path3079"
         d="m 256.691,82.268 c -1.786,0.755 -4.68,1.488 -6.308,0.971 0.216,-2.594 4.88,-2.314 6.308,-0.971 z"
         style="fill-rule:evenodd"
         inkscape:connector-curvature="0" />
      <path
         id="path3083"
         d="m 240.679,84.694 c -0.193,2.679 -4.569,1.704 -6.793,1.455 -1.392,1.357 -3.346,2.153 -4.367,3.882 -1.125,-0.135 -1.116,-1.296 -0.485,-1.94 -13.223,0.369 -24.655,-0.428 -35.908,1.94 -0.125,-1.008 -2.132,-0.133 -2.426,-0.97 1.246,-1.842 3.603,-0.782 5.337,-0.971 9.209,-1.002 23.258,-1.786 33.967,-1.456 2.421,-1.531 6.692,-3.56 10.675,-1.94 z"
         style="fill-rule:evenodd"
         inkscape:connector-curvature="0" />
      <path
         id="path3085"
         d="m 131.5,86.635 c -1.844,-0.098 -3.453,-0.43 -4.853,-0.971 0.28,-1.502 5.841,-1.813 4.853,0.971 z"
         style="fill-rule:evenodd"
         inkscape:connector-curvature="0" />
      <path
         id="path3089"
         d="m 242.135,90.031 c 1.14,1.384 -1.43,2.163 -1.456,3.882 2.25,-0.077 6.575,-4.666 9.705,-3.882 -1.1,2.297 -4.908,1.886 -5.823,4.367 2.827,1.596 5.702,-3.227 8.249,-1.94 -1.076,2.805 -5.975,1.789 -7.764,3.882 -1.009,2.063 1.051,3.149 0,4.853 -2.205,-0.06 -0.816,-3.713 -4.367,-2.427 0.021,-1.758 3.445,-0.113 2.912,-2.426 -3.024,-1.556 -6.562,0.546 -6.793,3.396 -2.36,-0.39 -7.596,-1.978 -3.882,-4.367 -0.466,2.091 3.067,1.643 3.882,0.971 2.016,-1.864 2.264,-5.499 5.337,-6.309 z"
         style="fill-rule:evenodd"
         inkscape:connector-curvature="0" />
      <path
         id="path3091"
         d="m 128.103,91.487 c -0.035,1.906 -1.204,2.678 -1.941,3.882 -0.958,4.404 -1.598,9.957 -2.426,13.102 -3.479,-3.133 2.95,-10.458 -0.485,-12.131 -1.581,2.647 0.482,11.337 -2.912,13.587 -0.877,-2.849 0.875,-5.875 0.485,-8.734 -0.382,-2.802 -3.192,-4.833 -2.912,-7.765 2.222,-0.588 4.26,0.724 6.793,1.941 0.809,-0.647 0.754,-2.158 1.456,-2.911 -2.158,0.217 -3.537,-0.346 -4.852,-0.971 0.712,-1.742 5.98,-1.216 6.794,0 z"
         style="fill-rule:evenodd"
         inkscape:connector-curvature="0" />
      <path
         id="path3093"
         d="m 238.738,90.517 c -0.861,1.889 -1.926,3.573 -4.367,3.882 0.775,-1.975 2.411,-3.088 4.367,-3.882 z"
         style="fill-rule:evenodd"
         inkscape:connector-curvature="0" />
      <path
         id="path3095"
         d="m 410.513,97.311 c 3.242,0.901 13.523,0.822 11.16,7.278 12.227,0.627 16.663,0.002 29.6,1.455 -1.216,-2.308 1.567,-6.513 4.853,-7.278 2.755,1.534 3.986,0.221 7.278,0 1.235,0.06 1.882,0.706 1.941,1.941 1.594,-0.658 3.51,-1.516 5.823,-1.456 1.135,0.029 0.493,0.824 0.97,0.971 4.227,1.292 12.009,-0.604 10.676,5.338 -2.064,1.131 -2.725,-1.271 -3.396,-2.912 -2.125,-0.611 -4.669,-0.611 -6.794,0 -1.769,-2.036 -5.094,-1.299 -7.764,-0.485 -1.559,0.427 -0.665,-1.599 -1.94,-1.455 -2.466,-0.363 -3.722,0.483 -4.367,1.94 -2.493,-3.462 -6.921,0.102 -5.823,3.396 5.292,1.197 13.934,-1.438 18.925,1.941 -1.583,2.632 -3.137,0.205 -4.853,0 -8.438,-1.008 -18.694,-0.112 -28.145,-0.971 -9.105,-0.827 -23.754,-0.056 -34.937,-0.971 0.978,0.963 3.738,0.145 3.396,2.427 -17.535,-0.614 -35,-1.762 -52.892,1.456 -17.21,-2.924 -36.112,2.034 -47.554,0 0.675,-4.341 6.662,-0.339 7.765,-2.427 1.075,-0.267 0.69,0.927 1.455,0.971 1.825,0.369 0.335,-2.577 2.427,-1.941 -0.206,1.015 0.332,1.285 0.485,1.941 0.278,-0.819 2.041,-3.546 1.94,-0.485 0.984,-0.31 0.319,-2.269 1.456,-2.426 1.63,-0.499 0.755,1.509 0.971,2.426 2.234,-1.896 2.328,-0.801 4.852,0 1.374,0.08 -0.402,-2.991 0.971,-2.911 1.472,-0.017 1.209,1.702 1.456,2.911 2.28,-1.155 3.961,-1.264 4.853,-2.911 1.061,0.071 1.042,1.223 0.97,2.426 2.442,0.339 4.046,-0.16 4.853,-1.456 1.036,-0.227 0.925,0.693 0.971,1.456 1.658,0.364 0.616,-1.972 2.427,-1.456 -0.021,0.83 0.36,1.257 0.97,1.456 4.372,0.104 10.941,0.028 13.102,-0.485 0.989,-0.305 0.137,-2.451 1.941,-1.94 -0.155,1.125 0.078,1.862 0.485,2.426 2.726,0.461 0.928,-3.602 3.396,-3.396 0,1.132 0,2.265 0,3.396 2.547,0.282 1.572,-2.957 2.426,-4.367 1.216,0.888 0.125,4.081 2.427,3.882 1.374,-0.656 -1.554,-4.135 1.455,-3.882 -0.005,1.289 0.184,2.771 -0.485,3.396 3.113,-0.386 8.934,0.927 11.161,-1.94 -0.556,1.526 0.762,1.179 0.971,1.94 1.203,-0.252 1.729,-1.183 2.426,-1.94 2.147,-0.075 -0.229,1.371 0.971,1.94 2.804,-0.618 4.406,0.551 5.338,-1.94 5.834,0.645 15.249,-0.5 22.32,0 2.81,0.198 5.468,1.008 7.279,-1.456 -1.69,-4.359 -8.334,-2.661 -12.132,-3.882 -1.261,-2.04 0.777,-2.038 0.971,-3.882 0.069,-3.527 -7.409,-2.516 -7.764,0.485 0.541,1.238 3.753,-0.195 4.367,0.971 -0.758,2.553 -6.419,1.688 -6.793,-0.485 0.172,-7.208 13.916,-7.173 11.159,0.97 z"
         style="fill-rule:evenodd"
         inkscape:connector-curvature="0" />
      <path
         id="path3097"
         d="m 432.349,91.487 c 1.322,-0.152 1.98,2.819 0.971,3.396 -1.167,-0.333 -2.818,-2.965 -0.971,-3.396 z"
         style="fill-rule:evenodd"
         inkscape:connector-curvature="0" />
      <path
         id="path3099"
         d="m 394.5,93.913 c -0.431,2.533 0.426,3.779 2.911,3.397 -0.274,1.182 -0.415,2.495 -1.94,2.426 -1.341,-1.409 -3.151,-2.349 -2.912,-5.338 -3.047,-0.835 -5.116,0.205 -6.793,1.941 0.004,1.621 2.337,2.373 0.971,3.882 -2.946,-0.565 -4.291,-2.256 -7.279,-0.485 -0.545,1.396 -1.02,2.862 -1.94,3.882 -2.456,-0.455 -3.662,-2.161 -5.823,-2.911 -2.19,0.073 -2.831,1.697 -4.853,1.94 -1.117,-4.047 -7.46,-1.201 -8.734,0.485 -1.261,-3.81 7.451,-5.268 9.705,-2.911 2.442,-2.022 6.96,-0.578 8.734,0.971 0.958,-0.336 1.294,-1.295 1.456,-2.427 1.899,-0.688 3.697,-1.478 5.822,-1.94 1.839,-3.381 7.39,-6.402 10.675,-2.912 z"
         style="fill-rule:evenodd"
         inkscape:connector-curvature="0" />
      <path
         id="path3101"
         d="m 428.467,92.943 c 2.297,-0.672 2.935,1.774 1.94,2.911 -2.062,0.445 -2.072,-1.163 -1.94,-2.911 z"
         style="fill-rule:evenodd"
         inkscape:connector-curvature="0" />
      <path
         id="path3103"
         d="m 182.936,95.854 c 2.163,0.586 4.269,1.23 4.852,3.396 -2,1.225 -6.749,-0.724 -4.852,-3.396 z"
         style="fill-rule:evenodd"
         inkscape:connector-curvature="0" />
      <path
         id="path3105"
         d="m 273.189,100.222 c -0.039,1.578 -0.62,2.614 -1.94,2.911 -1.114,-1.257 -0.057,-3.283 1.94,-2.911 z"
         style="fill-rule:evenodd"
         inkscape:connector-curvature="0" />
      <path
         id="path3107"
         d="m 278.042,100.222 c -0.896,1.044 -0.582,3.3 -2.911,2.911 -0.257,-2.197 0.714,-3.168 2.911,-2.911 z"
         style="fill-rule:evenodd"
         inkscape:connector-curvature="0" />
      <path
         id="path3109"
         d="m 412.454,101.677 c 0.154,1.126 -0.078,1.863 -0.485,2.427 -0.99,-0.143 -0.952,-1.313 -1.941,-1.456 0.071,-1.061 1.222,-1.043 2.426,-0.971 z"
         style="fill-rule:evenodd"
         inkscape:connector-curvature="0" />
      <path
         id="path3111"
         d="m 356.166,102.162 c 0,0.485 0,0.971 0,1.456 -1.015,0.205 -1.285,-0.333 -1.941,-0.485 0.117,-0.854 0.835,-1.107 1.941,-0.971 z"
         style="fill-rule:evenodd"
         inkscape:connector-curvature="0" />
      <path
         id="path3113"
         d="m 254.751,103.618 c 0.91,0.926 -0.288,0.878 0,2.426 1.495,0.363 0.591,-1.673 2.426,-0.97 0.093,2.195 -1.439,2.766 -3.396,2.911 -0.731,-1.209 -1.501,-2.381 -1.941,-3.882 0.573,-0.558 1.715,-0.549 2.911,-0.485 z"
         style="fill-rule:evenodd"
         inkscape:connector-curvature="0" />
      <path
         id="path3115"
         d="m 152.365,106.044 c 3.173,-3.15 8.547,-1.592 10.675,1.456 -3.095,0.936 -8.24,-4.178 -9.705,1.456 -1.873,-0.069 -2.243,-1.64 -4.367,-1.456 -2.986,0.411 -3.35,3.444 -7.279,2.911 -0.008,-4.211 6.236,-8.199 10.676,-4.367 z"
         style="fill-rule:evenodd"
         inkscape:connector-curvature="0" />
      <path
         id="path3117"
         d="m 183.906,108.471 c 0.672,-2.092 -2.478,-1.412 -0.97,-2.911 2.696,-0.433 3.009,1.52 2.911,3.882 -2.694,1.673 -8.175,0.559 -11.161,1.94 1.146,-2.784 -0.159,-4.666 -2.426,-5.338 -0.966,0.49 -2.073,0.839 -2.426,1.941 -0.586,2.365 1.929,1.63 1.941,3.396 -2.902,0.849 -4.114,-3.891 -8.249,-3.396 0.666,-2.057 3.87,-3.71 6.308,-2.426 3.628,-2.802 6.904,0.929 8.249,3.396 2.294,0.192 4.05,-0.155 5.823,-0.484 z"
         style="fill-rule:evenodd"
         inkscape:connector-curvature="0" />
      <path
         id="path3119"
         d="m 240.193,107.015 c -2.51,1.342 -6.104,1.383 -8.734,1.456 -10.822,0.3 -20.923,-0.855 -33.482,0 -1,0.132 -0.116,2.148 -1.456,1.94 -4.177,-0.092 -7.472,0.032 -10.19,-0.484 1.576,-2.012 2.478,-4.069 5.823,-4.367 2.771,-0.248 5.343,1.942 7.764,1.94 1.894,-0.002 3.671,-1.292 5.823,-1.456 2.698,-0.204 7.048,0.068 10.19,0.485 0.842,0.112 2.018,0.945 2.911,0.971 7.458,0.214 14.876,-2.945 21.351,-0.485 z m -49.494,1.456 c 1.475,0.013 3.952,1.517 3.882,-0.971 -1.467,0.15 -3.774,-0.539 -3.882,0.971 z"
         style="fill-rule:evenodd"
         inkscape:connector-curvature="0" />
      <path
         id="path3121"
         d="m 306.187,107.5 c 0,0.809 0,1.617 0,2.427 -1.627,0.333 -1.774,-0.814 -1.941,-1.941 0.431,-0.378 1.095,-0.522 1.941,-0.486 z"
         style="fill-rule:evenodd"
         inkscape:connector-curvature="0" />
      <path
         id="path3123"
         d="m 163.041,110.411 c 0.963,0.921 2.58,3.964 0,4.367 -1.86,0.089 -0.176,-0.396 -0.485,-1.455 -2.218,-0.531 -3.294,-2.206 -4.853,-3.396 -1.423,0.032 -1.802,1.108 -2.426,1.94 -0.519,1.812 1.205,1.383 0.97,2.911 -5.103,-1.381 -1.75,-6.737 1.456,-6.793 2.734,-0.047 2.436,4.203 5.338,2.426 z"
         style="fill-rule:evenodd"
         inkscape:connector-curvature="0" />
      <path
         id="path3125"
         d="m 150.424,110.411 c 0.078,2.666 -3.114,2.062 -3.882,3.883 -1.797,-0.957 0.767,-2.208 -0.971,-3.883 1.091,-0.947 3.651,-0.423 4.853,0 z"
         style="fill-rule:evenodd"
         inkscape:connector-curvature="0" />
      <path
         id="path3127"
         d="m 179.539,111.867 c 0.041,2.183 -3.033,3.159 -4.853,1.941 1.102,-1.163 2.443,-2.086 4.853,-1.941 z"
         style="fill-rule:evenodd"
         inkscape:connector-curvature="0" />
      <path
         id="path3129"
         d="m 132.47,112.838 c 0.055,1.834 -0.949,2.609 -2.426,2.911 -0.352,-2.131 1.042,-2.516 2.426,-2.911 z"
         style="fill-rule:evenodd"
         inkscape:connector-curvature="0" />
      <path
         id="path3131"
         d="m 292.114,120.116 c -0.667,0.699 -2.794,2.098 -4.367,2.427 -2.097,0.438 -5.589,0.532 -6.793,-1.456 -7.186,1.874 -18.477,-1.778 -29.6,-0.485 -1.317,0.139 -2.287,0.624 -2.912,1.456 -3.36,0.865 -7.618,-0.895 -10.675,-0.971 -1.578,-0.039 -3.191,0.902 -4.853,0.971 -6.275,0.258 -13.125,-0.88 -18.924,-0.485 -4.128,0.28 -8.326,1.808 -12.131,-0.485 1.844,-2.111 4.83,-0.372 7.278,-0.485 3.667,-0.169 7.435,-1.6 11.161,-0.485 -2.957,-1.998 -6.828,-0.58 -10.19,-0.971 -2.296,-0.266 -4.729,-1.588 -7.279,-1.94 -3.258,-0.451 -6.364,0.134 -8.734,-1.941 -0.257,-0.39 -0.506,-0.787 -0.485,-1.455 0.393,-0.093 0.484,-0.487 0.971,-0.485 13.852,5.98 35.3,4.35 50.95,7.278 13.157,-4.041 34.417,-0.194 46.583,-0.488 z"
         style="fill-rule:evenodd"
         inkscape:connector-curvature="0" />
      <path
         id="path3133"
         d="m 145.572,118.176 c -0.623,-0.638 -0.623,-1.789 0,-2.427 0.721,0.573 2.168,0.42 1.941,1.941 -0.432,0.377 -1.096,0.522 -1.941,0.486 z"
         style="fill-rule:evenodd"
         inkscape:connector-curvature="0" />
      <path
         id="path3135"
         d="m 313.465,120.602 c -1.042,3.065 -4.96,0.989 -7.278,0.971 -4.571,-0.038 -9.827,1.098 -12.616,-0.971 5.901,-2.965 14.386,0.953 19.894,0 z"
         style="fill-rule:evenodd"
         inkscape:connector-curvature="0" />
      <path
         id="path3137"
         d="m 395.471,123.027 c -1.038,2.605 -4.481,1.438 -6.309,1.456 -9.4,0.095 -20.531,-0.747 -31.541,-0.971 -3.876,-0.078 -7.858,-1.064 -11.16,-0.97 -1.351,0.038 -3.041,0.846 -4.367,0.97 -8.218,0.771 -16.624,-1.288 -25.232,-0.97 -0.215,-0.433 -0.426,-0.868 -0.971,-0.971 0.216,-0.433 0.427,-0.868 0.971,-0.971 6.991,-0.545 13.786,0.976 20.38,0.971 4.282,-0.003 8.573,-1.125 12.616,-0.971 1.765,0.067 3.547,0.916 5.338,0.971 8.861,0.268 18.051,-0.142 28.144,0.485 3.86,0.241 7.878,1.729 12.131,0.971 z"
         style="fill-rule:evenodd"
         inkscape:connector-curvature="0" />
      <path
         id="path3139"
         d="m 105.782,123.513 c -1.373,0.898 -4.872,0.568 -4.853,-1.455 2.024,-0.012 4.365,-0.989 4.853,1.455 z"
         style="fill-rule:evenodd"
         inkscape:connector-curvature="0" />
      <path
         id="path3143"
         d="m 375.575,33.744 c 2.077,-0.133 -0.174,1.919 -0.971,1.941 -4.241,7.243 -7.754,15.214 -13.101,21.351 -0.572,-1.559 1.914,-4.219 3.396,-5.337 2.581,-6.964 6.876,-12.213 10.676,-17.955 z"
         style="fill-rule:evenodd"
         inkscape:connector-curvature="0" />
      <path
         id="path3145"
         d="m 342.579,57.521 c 3.631,-4.62 10.282,-10.42 14.072,-16.498 -2.249,6.001 -8.684,12.018 -14.072,16.498 z"
         style="fill-rule:evenodd"
         inkscape:connector-curvature="0" />
      <path
         id="path3147"
         d="m 389.647,49.271 c 0.052,2.163 -2.047,6.357 -2.911,9.219 -0.531,-2.641 1.839,-6.564 2.911,-9.219 z"
         style="fill-rule:evenodd"
         inkscape:connector-curvature="0" />
      <path
         id="path3149"
         d="m 368.782,57.035 c 1.898,0.261 -1.265,3.045 -1.456,4.367 -1.537,-1.569 1.602,-2.579 1.456,-4.367 z"
         style="fill-rule:evenodd"
         inkscape:connector-curvature="0" />
      <path
         id="path3151"
         d="m 287.262,58.006 c -0.414,2.083 -4.302,-0.741 -5.823,0.97 -0.407,-1.1 4.261,-1.526 5.823,-0.97 z"
         style="fill-rule:evenodd"
         inkscape:connector-curvature="0" />
      <path
         id="path3153"
         d="m 360.048,57.521 c 0.817,0.693 -0.744,3.11 -1.941,3.396 0.093,-1.686 1.716,-1.842 1.941,-3.396 z"
         style="fill-rule:evenodd"
         inkscape:connector-curvature="0" />
      <path
         id="path3155"
         d="m 195.552,94.398 c -1.627,0.152 -0.49,3.069 -1.941,3.396 1.537,1.548 4.865,-0.612 6.309,1.456 -1.277,2.446 -5.001,0.825 -8.25,0.485 -0.267,-1.076 0.927,-0.69 0.971,-1.456 -0.876,-1.31 -1.78,1.417 -3.882,0.485 -0.222,-1.516 1.037,-1.551 2.426,-1.455 1.774,-6.081 9.856,-4.713 18.439,-5.338 1.927,-0.141 4.498,-0.56 5.823,-0.485 1.358,0.075 2.579,1.052 3.882,0.971 3.388,-0.213 6.268,-3.034 9.22,-1.456 1.214,0.082 1.519,-0.745 1.941,-1.456 1.469,0.569 2.6,1.473 4.367,0.485 0.53,1.542 -1.924,3.751 -3.882,4.367 -1.842,-2.74 -7.39,-2.018 -10.675,-0.971 2.965,1.727 7.651,1.73 10.675,3.397 -1.011,0.606 -2.046,1.188 -2.912,1.94 -3.282,-0.055 -4.006,-4.359 -7.764,-2.426 -1.636,-0.144 -1.407,-2.151 -2.912,-2.427 -2.036,-0.256 -2.71,0.848 -4.367,0.971 0.315,1.771 -0.327,2.585 -0.97,3.396 2.227,0.448 2.344,-1.214 4.367,-0.97 0.062,0.87 -0.594,1.023 -0.485,1.94 0.427,0.86 1.949,-1.247 3.396,-0.971 0.624,-0.263 0.829,1.739 1.456,1.941 0.465,0.149 0.893,-0.975 1.456,-0.971 0.816,0.006 1.496,0.919 2.426,0.971 0.93,0.052 1.812,-0.933 2.911,-0.971 0.77,-0.026 1.559,0.834 2.426,0.971 4.6,0.723 9.583,-0.746 13.587,1.455 -5.447,0.244 -11.897,0.263 -18.439,0 -5.182,-0.207 -10.508,0.142 -15.042,-0.97 -0.33,-3.241 1.346,-4.478 1.941,-6.794 -2.064,-0.128 -7.492,-1.424 -8.249,1.941 1.014,1.897 2.342,3.48 4.852,3.882 -0.339,2.134 -7.1,2.369 -6.793,-0.485 0.647,0 1.294,0 1.941,0 0,-0.646 0,-1.294 0,-1.94 -2.623,0.309 -4.128,-4.711 -8.249,-2.908 z"
         style="fill-rule:evenodd"
         inkscape:connector-curvature="0" />
      <path
         id="path3157"
         d="m 248.928,99.251 c -1.054,-1.786 -1.079,1.452 -2.426,0.971 -0.001,-3.486 3.632,-5.628 5.822,-5.338 -0.152,1.142 -2.3,0.288 -1.94,1.941 3.368,0.133 3.28,-3.189 6.308,-3.397 0.087,1.704 -1.639,1.597 -1.94,2.912 2.561,0.458 3.131,-1.074 4.367,-1.941 2.396,0.98 -1.255,1.612 -0.971,3.396 2.302,-0.124 2.489,-2.362 5.338,-1.94 -0.242,2.022 -2.194,2.335 -3.882,2.911 1.585,3.005 3.411,-0.688 5.337,-1.455 2.045,0.605 -0.046,1.988 0,3.396 2.228,0.447 2.345,-1.214 4.367,-0.971 -0.945,2.465 -3.866,3.425 -6.308,1.94 -1.332,1.048 0.482,2.229 -0.485,3.397 9.737,1.411 24.034,1.945 32.511,0 -3.031,-0.563 -7.592,-1.067 -11.16,-1.456 -1.813,-0.197 -4.939,1.423 -4.853,-1.456 6.508,-2.273 10.615,2.11 19.895,0.971 1.563,-0.378 1.689,-2.193 2.427,-3.396 1.482,-0.611 4.946,0.391 7.764,0 0.549,1.554 0.986,3.219 0.971,5.338 -2.138,-1.746 -4.905,-3.215 -9.22,-1.941 -0.747,1.712 0.262,2.17 -0.485,3.882 -9.386,0.971 -22.34,0.399 -34.938,0.485 -1.759,0.013 -4.391,-1.643 -5.337,0.971 1.491,1.459 3.971,-0.21 5.337,-0.485 3.996,1.627 8.887,1.934 13.587,1.941 4.742,0.007 9.48,-1.776 14.072,-1.456 3.676,0.257 6.514,1.757 9.704,1.456 -2.903,2.985 -6.93,0.719 -10.675,0.484 -12.081,-0.753 -26.852,2.085 -36.393,-0.484 -1.315,0.463 0.457,4.016 -1.456,3.882 -2.01,0.068 -0.506,-3.377 -0.971,-4.853 3.595,-0.611 6.71,-1.701 7.764,-4.853 -0.081,-3.154 -3.305,-3.165 -4.367,-5.338 -2.28,-0.34 -1.919,1.963 -3.396,2.427 -2.358,-0.094 -4.639,-0.11 -5.823,0.97 -0.458,3.855 1.259,5.535 3.397,6.794 -0.606,2.044 -1.989,-0.047 -3.397,0 -1.077,0.54 -1.314,1.92 -2.426,2.426 -18.279,0.78 -32.298,0.711 -47.553,1.456 2.527,-3.225 8.665,-2.103 15.527,-2.427 9.108,-0.43 18.369,-0.1 25.718,-0.484 1.745,-1.652 3.265,-3.529 7.279,-2.912 -1.023,-2.125 0.095,-6.696 2.91,-7.764 z"
         style="fill-rule:evenodd"
         inkscape:connector-curvature="0" />
      <path
         id="path3159"
         d="m 155.762,116.234 c 1.188,1.145 -0.725,0.903 -0.485,2.427 3.181,0.916 2.93,-1.6 4.852,-1.941 -0.155,1.125 0.078,1.863 0.485,2.426 5.521,-0.242 14.313,0.169 21.351,0 -1.562,-1.834 -7.184,0.392 -6.793,-3.396 1.828,-1.048 2.055,0.761 3.882,0.971 7.017,1.395 15.002,1.82 22.321,2.911 -2.512,2.746 -8.073,0.507 -13.587,0.971 -12.655,1.065 -27.361,0.923 -42.216,0 -2.333,-0.145 -4.74,-1.014 -6.793,-0.971 -1.072,0.022 -2.292,0.803 -3.396,0.971 -3.646,0.556 -7.185,-0.619 -11.161,-0.971 -7.064,-0.624 -13.402,0.626 -19.895,0.485 -3.56,-0.077 -6.739,-0.698 -10.19,-0.485 -3.99,0.246 -7.989,1.197 -12.131,1.456 -7.012,0.438 -15.053,-0.936 -20.865,0.971 -9.357,-2.196 -24.656,2.514 -34.937,-0.485 5.585,-2.663 17.148,0.65 22.806,-1.941 -10.114,-1.592 -20.52,-0.928 -28.144,-1.455 -3.865,-0.268 -8.604,1.019 -12.616,-0.971 0.306,-2.017 3.72,-0.999 6.793,-0.971 8.58,0.08 17.543,0.646 26.688,0.971 5.89,0.209 12.066,-0.787 17.469,-0.485 3.187,0.178 6.271,2.095 9.22,0.971 2.128,-0.511 1.594,1.641 3.396,1.455 19.632,-1.764 37.262,-2.55 58.714,-0.484 1.793,0.014 1.76,-1.799 2.912,-2.427 2.138,-0.075 0.137,1.372 0,1.941 1.92,-0.992 4.71,-1.113 5.823,-2.912 -0.57,-2.841 -3.321,1.223 -4.367,-0.485 0.001,-1.939 0.97,-2.912 0.971,-4.852 -2.313,-2.074 -4.375,0.998 -6.793,-0.971 -3.717,0.965 -1.018,3.886 -1.941,6.308 -5.596,-5.245 2.718,-11.255 9.22,-7.764 0.643,3.691 2.092,3.946 4.367,6.309 0.282,1.898 -0.417,2.817 -0.97,3.882 5.293,1.221 12.66,1.641 16.01,-1.459 z"
         style="fill-rule:evenodd"
         inkscape:connector-curvature="0" />
      <path
         id="path4810"
         style="fill:#000000;fill-opacity:1;stroke:#000000;stroke-opacity:1"
         d="m 100.58893,84.520981 c 1.79631,-0.334307 3.62876,-0.408014 5.45046,-0.480808 1.78826,-0.06335 3.57695,-0.114127 5.36615,-0.140174 1.18398,-0.01324 2.36803,0.007 3.55201,0.01268 1.24538,0.09049 2.48724,0.220493 3.73392,0.293116 0.85885,0.04139 1.71898,0.0487 2.57869,0.05224 0.99723,-0.03883 2.011,0.09362 2.99868,-0.06838 0.44343,-0.08011 0.90072,-0.146719 1.2964,-0.379739 0.0785,-0.04622 0.29016,-0.218559 0.21081,-0.173849 -1.43705,0.809662 -2.85827,1.647118 -4.2874,2.470676 0.54362,-0.424669 0.94644,-0.997901 1.39077,-1.520877 0.2937,-0.296278 0.62534,-0.551042 0.93927,-0.825882 l 4.91128,-1.962681 0,0 c -0.34261,0.234003 -0.6046,0.555799 -0.97183,0.754306 -0.51382,0.477746 -0.89337,1.06438 -1.35409,1.588186 -2.41572,1.44055 -3.83755,2.944559 -6.36291,3.186774 -1.00689,0.04041 -2.01552,0.0044 -3.02301,0.01787 -0.86698,-0.0041 -1.73478,-0.0038 -2.59926,-0.08036 -1.22249,-0.102209 -2.4411,-0.263368 -3.66845,-0.295368 -1.19199,0.0033 -2.384,0.01723 -3.57599,0.0087 -1.74784,-0.0079 -3.49636,-0.0023 -5.24278,0.07735 -1.87066,0.104461 -3.748908,0.225354 -5.579364,0.65251 l 4.236644,-3.186313 z M 398.78125,14.25 C 386.24214,14.841637 386.95145,38.313893 373.375,27.5625 356.04882,30.094869 346.3457,47.07803 329.75,52.40625 315.71319,59.137492 296.59744,63.636903 285.625,51.25 269.28104,46.627299 258.03347,25.65335 239.625,32.3125 224.76974,39.461965 207.62558,60.883901 190.4375,46.5 172.04333,49.755323 164.72652,32.943124 150.4375,25.0625 134.78102,25.76611 125.56375,42.95537 110,43.6875 94.835614,50.642042 86.438783,37.384795 75.28125,30.875 c -2.977279,-11.837008 -25.773935,-4.127329 -19.5,-1.78125 17.544878,-8.950716 27.396515,17.766841 43.375,21.5625 -0.09754,-6.656331 24.32437,-3.787176 31.59375,-14.5625 13.01796,-15.183723 29.71352,-5.573551 38.71875,7.9375 -9.54963,5.500629 -33.75049,5.319687 -48.90625,7.4375 -5.78128,-0.393721 -28.59051,-2.563485 -11.75,3.5 16.22799,3.386325 32.76641,5.880651 48.0625,11.875 8.73671,3.538782 25.97117,6.933716 7.1875,10.71875 -14.29942,3.021181 -25.08783,6.187844 -31.625,-7.3125 -5.9566,-1.187184 -8.88782,5.858962 -10.28125,6.40625 -0.003,0.02206 0,-0.05903 0,0.21875 l 0,0.34375 c 0,0.119047 -0.0842,0.29082 0,0.375 0.0842,0.08418 0.25957,-0.08418 0.34375,0 0.0842,0.08418 -0.0532,0.237271 0,0.34375 0.0753,0.150585 0.26846,0.224416 0.34375,0.375 0.0532,0.10648 -0.0842,0.259571 0,0.34375 0.0842,0.08418 0.29082,-0.08418 0.375,0 0.0842,0.08418 -0.0842,0.259571 0,0.34375 0.0842,0.08418 0.25957,-0.08418 0.34375,0 0.0842,0.08418 0,0.255952 0,0.375 0,0.119047 0.11905,0.34375 0,0.34375 -0.0298,0 -0.0257,-0.01972 -0.0312,-0.0625 -0.0218,0.153749 -0.0352,0.304584 0.0312,0.4375 0.0532,0.106479 0.29082,-0.08418 0.375,0 0.16836,0.168358 -0.16836,0.550391 0,0.71875 0.0842,0.08418 0.25958,-0.08418 0.34375,0 0.0842,0.08418 -0.0842,0.259571 0,0.34375 0.0842,0.08418 0.29082,-0.08418 0.375,0 0.0842,0.08418 -0.0842,0.259571 0,0.34375 0.16836,0.168359 0.51914,-0.168359 0.6875,0 0.0842,0.08418 -0.0842,0.29082 0,0.375 0.0842,0.08418 0.29082,-0.08418 0.375,0 0.17857,0.178571 -0.17858,0.883929 0,1.0625 0.0842,0.08418 0.25957,-0.08418 0.34375,0 0.0316,0.03157 0.0337,0.07934 0.0312,0.125 1.68105,-0.999959 4.42688,-1.347061 5.625,-0.375 -5.76267,-4.866871 -5.68325,-1.574508 -3.375,-5.09375 -9.3124,-5.040751 12.96281,-4.029369 7.21875,4.375 7.26481,1.831131 -1.21439,11.16457 -3.9375,10.03125 -1.35225,-0.271462 -8.86604,16.08365 -3.75,11.59375 7.11437,-18.221855 33.30097,-7.27444 48.28125,-5.9375 11.78809,3.17517 -6.54908,-4.70618 5.96875,-4.4375 6.39233,-2.613638 11.32959,7.87935 7.03125,-3.125 -8.78888,-2.168792 -25.42283,7.609266 -23.34375,1.78125 -5.75136,2.177537 -24.92507,-0.330968 -25.3125,-0.15625 27.50685,-2.819397 54.95923,-6.111976 82.0625,-11.5625 16.09641,-2.541817 31.47361,-3.868207 47.15625,-0.21875 19.70607,4.454 39.72403,4.310212 59.5,5.875 7.44924,0.85201 28.84228,1.641489 27.78125,0.96875 -16.51971,-1.523849 -33.27944,-3.806639 -49.75,-4 -18.16662,-1.133678 -36.44873,-3.96965 -54.65625,-7.25 -7.54145,1.464201 -29.02989,1.270369 -9.40625,0 9.52847,-3.802408 -10.8714,-1.93044 -13.65625,2.25 -29.62744,5.089061 -59.20466,10.672009 -89.3125,11.78125 11.76326,-7.489253 29.45487,-1.887465 42.875,-7.96875 17.15206,-1.616836 34.13988,-4.133799 50.40625,-10.125 10.63318,0.0427 23.97708,-2.964687 8.9375,-3.15625 -19.31991,4.627182 -38.48836,10.195294 -58.15625,11.5625 -13.55657,3.923515 -31.22206,5.742514 -43.5,4.53125 15.44171,-4.378108 31.51149,-3.565429 46.65625,-8.53125 18.66231,1.3234 35.39916,-7.268249 53.34375,-9.53125 11.69857,-1.008088 24.7157,4.248914 36.71875,6.25 19.83184,5.798277 41.0461,5.474565 61.375,5 14.77343,4.133104 35.71435,4.363161 46.09375,-0.65625 -1.25421,-3.507152 17.62444,5.339452 1.78125,4.40625 -16.25093,1.82933 -32.64604,3.096157 -48.3125,-1.53125 -18.77556,-1.145822 -38.12461,1.314373 -56.28125,-4 -6.28915,-2.373815 -33.47863,-7.215209 -27.46875,-4.3125 16.40823,1.609104 31.72895,8.062237 47.75,9.125 19.35345,-0.847789 38.01773,0.272864 56.96875,3.96875 7.31794,1.085445 25.7441,-3.708755 24.96875,-1.09375 -3.22651,4.158525 -31.464,5.206786 -17.53125,6.0625 -17.66134,10.75285 -37.54972,3.433511 -56.6875,4.90625 -11.89085,-1.286623 -29.97729,-4.250562 -38.6875,-1.59375 -6.22766,-0.454971 -19.85182,-9.739632 -4.21875,-6.0625 29.0574,1.482147 58.22549,3.480917 87.21875,4.5 -13.61224,-2.302491 -34.94861,-2.745385 -51.625,-3.6875 -15.73247,-2.083897 -31.52002,-1.429466 -47.09375,-3 -6.565,-2.19899 -20.98464,2.489672 -6.3125,1.3125 14.32538,5.509487 28.30811,10.600627 43.375,14.71875 15.8509,1.80179 -11.96654,-5.147652 -15.59375,-6.40625 -6.88055,-2.72228 15.2642,1.087887 20.125,0.5 14.43329,0.807689 28.89719,1.034887 43.28125,2.5625 -8.7932,8.48446 -29.53945,-7.470546 -29.125,6.8125 0.83089,-0.74153 4.50665,-8.465191 7.8125,-2.625 8.09436,-3.589865 17.49688,5.33465 21.46875,-0.34375 6.79009,3.03365 16.84693,0.84065 2.9375,-1.125 -17.13697,0.10438 22.14207,-5.768863 28.25,-10.65625 14.52584,-4.958446 25.72645,-10.650619 40.90625,-11.84375 5.30887,-1.81624 10.80582,-3.602977 16.34375,-4.9375 -1.04692,0.07789 -2.14832,8.31e-4 -3.28125,-0.3125 -12.57872,2.260116 -17.01358,3.662944 -26.90625,4.90625 2.38744,-3.230648 -18.46674,2.23646 -9.5625,-8.09375 4.06619,-4.742359 4.97111,-11.407798 7.8125,-16.4375 6.23473,4.374472 -13.94468,26.206554 -2.0625,14.5 2.27396,-10.531805 9.43735,-12.924276 2.90625,-1.34375 -9.99968,20.694831 11.52535,-19.225838 4.75,-0.53125 -7.98635,13.416163 1.29616,2.322349 4.34375,-4.28125 2.57541,2.034238 -2.48381,10.231844 -2.875,11.09375 0.21396,-0.227505 1.19101,-1.558573 3.5,-4.65625 9.74059,-11.060495 -4.80946,13.67946 5.0625,-0.5 5.58535,-7.433939 17.39947,-2.620796 17.84375,0.125 3.82017,-5.863731 5.43091,-2.913032 2.0625,1.53125 9.71226,-9.522038 6.74289,0.408694 -0.53125,3.3125 12.83454,-2.671691 25.82098,-2.551685 37.4375,5.5 -5.40077,-10.619453 -30.08301,-5.651208 -28.84375,-11.71875 11.12475,-2.194682 25.22799,5.197682 37.03125,10.21875 18.81391,10.603947 -4.69235,-6.864114 -11.75,-7.28125 -9.27083,-4.67586 -4.66191,-19.809402 -19.21875,-19.75 -6.41812,-3.377885 -0.045,-9.661846 0.5,-5.46875 0.44508,-7.947075 5.27235,-4.3422 3.46875,0.78125 2.8548,-7.706298 2.15749,-33.505501 3.75,-14.0625 -1.07896,6.849707 -1.56268,24.224296 0.59375,7.0625 -1.69604,-6.801022 3.95821,-24.610611 3.6875,-7.875 -1.37554,6.552711 -2.55412,22.275625 0.53125,6.90625 -1.1131,-7.836316 3.98518,-20.921064 2.65625,-4.75 -1.2736,7.56464 -0.57838,21.48665 0.78125,5.6875 -0.96897,-9.206321 2.72562,-18.42539 1.75,-3.53125 -1.65587,6.579855 3.64199,31.3251 2.0625,12.34375 -1.52629,-4.649488 -1.03292,-29.7881 2.4375,-12.375 -1.05978,8.405112 4.78113,26.390927 1.875,7.625 -3.21611,-26.466553 9.95659,29.930206 5.09375,3.9375 -9.24545,-16.266683 12.62942,-9.147617 9.03125,2.5 8.40441,11.176817 -6.05181,-15.53665 5.25,-2.8125 C 484.54182,33.822024 469.32085,32.707562 462.21875,21 c -18.21722,-10.168177 -7.93273,11.956714 -16.375,17.28125 -16.32497,12.815925 -28.45005,-10.886102 -34.875,-20.5 -4.47894,-0.154641 -7.70767,-3.698488 -12.1875,-3.53125 z m 33.5,57.65625 c -1.01963,0.212251 -2.04563,0.442457 -3.0625,0.6875 1.07953,-0.08032 2.11133,-0.307797 3.0625,-0.6875 z M 430.75,67.0625 c -0.21359,0.32784 -0.42925,0.678297 -0.65625,1.0625 0.52405,-0.271718 0.72399,-0.643873 0.65625,-1.0625 z M 399.34375,16.28125 c -3.06596,5.617962 -3.28056,29.631928 -8.46875,25.65625 3.79516,-7.541694 2.67741,-21.246272 8.46875,-25.65625 z m 2.1875,0.9375 c 10.67966,0.294935 -4.56521,32.41045 4.125,14.4375 -0.66899,-10.14875 5.04032,-16.653133 2.75,-3.03125 -1.66498,8.212902 -5.13912,21.718523 0.25,6.0625 0.82897,-7.816682 3.95793,-19.14183 1.78125,-4.53125 0.23385,9.621358 -8.53934,29.0734 0.75,10.125 -0.26474,-7.743238 3.50857,-18.896932 3.125,-4.34375 -2.85296,8.855807 -3.08977,18.27859 0.65625,4.125 -0.31427,-9.233425 2.33594,-14.578164 2.15625,-1.3125 -2.11977,9.269781 -0.47823,14.788418 1.0625,2.15625 1.56924,-14.544954 1.771,-0.532316 0.53125,8.96875 0.51991,-1.54895 1.3003,-3.279624 2.40625,-5.28125 0.67558,-2.285169 0.43526,-4.668539 0.65625,-7 3.26246,0.721889 -0.71515,31.462418 2.625,14.5 -1.19289,-9.675539 2.72017,-17.388189 2.71875,-2.5 4.08646,17.811688 0.7221,-1.571412 2.34375,-7.375 1.95192,7.856457 4.12066,17.405956 2.8125,2.28125 4.52087,-1.654933 3.07017,22.715108 3.9375,5 3.26721,-10.689747 3.16926,20.546874 3.90625,3.53125 0.23412,-16.073745 5.52094,17.732245 4.28125,0.6875 0.92665,-9.33226 3.68851,10.778574 5.125,-1.875 1.02064,6.659159 2.60828,9.212879 2.9375,1.6875 12.42336,4.549259 2.96534,18.197893 -5.21875,8.90625 -9.76722,-2.578741 -29.03638,1.977058 -29.3125,-8.1875 -0.22518,0.884763 -0.47633,1.652564 -0.75,2.125 0.21224,9.960061 -17.99597,-0.344664 -17.0625,-7.9375 -11.50556,3.682004 8.3496,-25.517919 2.03125,-28.59375 -1.31071,5.753892 -4.16026,28.223909 -8.5,23.75 4.69584,-8.008749 3.84597,-19.064163 7.875,-26.375 z M 417.9375,54.25 c 0.30836,-1.211564 0.56302,-2.702571 0.78125,-4.375 -0.56586,1.68583 -0.81446,3.152538 -0.78125,4.375 z M 394.15625,18.03125 c 0.1344,-0.0044 0.28402,0.0162 0.4375,0.03125 2.3887,8.892674 -9.57022,34.359358 -2.90625,13 3.04639,-3.665259 -1.69771,-12.89622 2.46875,-13.03125 z M 452.25,21.125 c -0.15128,13.004913 -4.09392,7.826263 0,0 z M 391.53125,23.5 c 2.83174,2.750748 -2.95108,3.132429 0,0 z m -2.3125,2.5 c 0.08,11.460183 -0.20147,14.569612 -5.8125,7.6875 -0.23393,-3.64134 5.1933,-4.355303 5.8125,-7.6875 z m -13.15625,4.34375 c -11.6752,13.414909 -20.77894,29.132321 -34.4375,40.75 15.16627,-7.871505 21.77905,-25.504201 33.40625,-37.3125 7.90442,-2.43612 -8.11878,15.928772 -10.0625,21.96875 -4.0669,5.386113 -14.45069,20.264984 -3.375,8.0625 5.52206,-5.12113 14.7143,-27.836892 16.3125,-25.71875 -2.72286,6.68165 -5.42787,14.976245 -0.8125,4.09375 10.10497,-17.35873 -2.24122,12.077469 -7.46875,17.0625 -3.95557,6.995962 -21.43624,25.263446 -7.21875,11.9375 8.19048,-6.77042 17.24421,-28.766319 19.6875,-29.75 -3.63685,7.351035 -7.32268,15.298829 -1,4.125 9.67089,-12.756501 6.046,10.605192 -1.125,16.84375 -4.14804,6.861185 -7.02188,14.688791 -0.4375,4.0625 3.0284,-7.561981 15.66933,-30.883711 9.71875,-10.34375 -4.61999,6.71009 -3.43038,3.819108 -7.875,14.9375 -3.86502,11.620615 -30.6931,8.954052 -33.59375,4.21875 18.06343,-12.820608 -16.60689,9.408235 -6.90625,-3.15625 -5.41032,3.95521 -14.25006,4.529177 -12.40625,0.4375 -6.27334,6.934293 -36.64005,1.228345 -34.25,0.15625 6.71719,-4.692159 34.50879,8.247893 17.3125,-3.1875 -17.01228,-4.306155 19.41783,-14.789422 1.03125,-6 -7.66198,7.727016 13.8048,-7.99891 18.59375,-8.96875 15.32416,-6.505151 -29.00447,22.567586 -7.125,10.28125 9.04291,-4.575045 24.85006,-23.358173 27.3125,-21.15625 -5.73938,9.599381 -28.52643,24.473819 -28.375,26.46875 18.03345,-8.579811 27.97276,-26.909699 43.0625,-38.875 -3.91549,10.547846 -20.878,29.215211 -33.59375,38.40625 8.63946,-1.699536 24.42091,-21.469468 33.125,-33 C 378.12389,24.354303 345.89319,64.162489 363.5,43 c 3.51101,-4.544403 6.34913,-11.408325 12.5625,-12.65625 z M 247,32.96875 c 20.09755,2.17788 -14.17573,3.740657 -6.125,0.96875 l 3.0625,-0.75 z m -2.75,3.375 c 0.57875,-0.01535 1.24474,0.01954 1.96875,0.09375 -6.29993,1.927636 -6.02001,0.01371 -1.96875,-0.09375 z m -5.3125,0.46875 c 0.6949,2.3643 -9.87907,4.1558 1.46875,3.46875 6.2943,-0.759091 32.98659,1.337357 14.3125,2.125 -10.38359,0.265569 -35.4888,8.224229 -36.53125,5.65625 10.00796,-3.167282 13.64726,-7.758719 20.75,-11.25 z m 11.75,0.28125 c 18.55389,1.681196 -2.49023,2.645363 -9.96875,1.5 3.16948,-1.239709 6.61535,-1.369176 9.96875,-1.5 z m 192.25,5.84375 c 0.62657,7.220111 -8.35687,0.386176 0,0 z M 261.53125,43.875 c 7.41107,-0.01476 15.30722,4.446592 2.96875,2.4375 -16.09893,0.381406 -34.40921,6.058738 -51.21875,9.25 -18.99355,3.543205 -0.90196,-2.589318 7.625,-4.4375 10.00162,-4.107064 24.31793,-6.211842 36.625,-7.125 l 2.53125,-0.0625 c 0.48363,-0.04405 0.97468,-0.06152 1.46875,-0.0625 z M 450.875,44.28125 c -0.11811,0.322267 -0.26402,0.637393 -0.4375,0.96875 0.15522,-0.270719 0.29941,-0.606826 0.4375,-0.96875 z m -270.09375,2.4375 c 8.20492,-0.532786 30.44335,12.802203 12.09375,4.75 -17.25723,-7.177978 -35.50755,2.2632 -53.1875,1.40625 -7.34572,-0.07228 -17.51947,0.338639 -3.78125,-1.09375 14.62707,-2.101824 29.42671,-3.124495 44.125,-4.96875 0.23364,-0.04723 0.48533,-0.07656 0.75,-0.09375 z M 262.75,47.8125 c 4.2754,1.687008 27.38723,1.747492 8,2.84375 -24.1607,1.492105 -47.6463,8.305174 -71.8125,9.78125 16.91925,-4.816738 35.16377,-7.657526 52.65625,-11.40625 3.70174,-0.463408 7.43501,-1.072216 11.15625,-1.21875 z m -80.90625,2 c 7.57925,-0.131448 28.39405,12.901141 9.3125,4.1875 -17.14776,-4.456682 -34.41381,2.376417 -51.78125,3.03125 -6.92253,0.625915 -28.2617,-1.949252 -11.125,-2.375 18.12917,0.950706 35.71888,-3.411545 53.59375,-4.84375 z m 212.625,0.34375 c -5.49973,10.459874 5.05142,-5.540183 -0.5625,6.3125 -0.46271,5.184341 -14.11111,25.796324 -12.5625,17.8125 3.84016,-6.221077 8.75892,-18.02146 13.125,-24.125 z m -175.375,0.3125 c -17.89892,6.662924 -7.91564,-0.178759 0,0 z M 108.25,51.78125 c 9.1096,2.873494 -6.71595,0.948695 0,0 z m 168.40625,0.5625 c 9.58973,-0.09241 8.9212,4.504259 -2.3125,3.1875 -15.39848,1.739195 -30.70973,4.455235 -45.96875,6.84375 -10.58271,0.14916 -34.79543,8.719545 -37.1875,3.40625 16.63477,-8.011785 37.77735,-5.263247 56,-10.75 9.05898,-1.556704 18.2031,-2.617147 27.40625,-2.59375 0.73033,-0.05089 1.42318,-0.08759 2.0625,-0.09375 z M 120.25,52.78125 c 4.93417,2.243518 -11.61193,0.331537 0,0 z m 64.46875,1.03125 c 10.18277,0.09417 14.94223,10.494562 1.9375,11.46875 -10.50876,-2.006576 -34.11788,3.084014 -35.71875,-4.09375 14.23502,0.687385 28.45556,-1.442212 42.6875,-0.75 -18.94054,-5.26949 -38.55556,1.611841 -57.71875,-1.46875 15.32984,-2.593387 31.19626,-3.298904 46.71875,-5.03125 0.7236,-0.09117 1.4149,-0.131278 2.09375,-0.125 z m 100.8125,2.59375 c 6.82316,1.192153 13.63776,6.700122 -0.1875,4.53125 -12.69343,-0.274057 -44.7753,6.425799 -46.28125,0.78125 15.68973,-0.908521 30.78814,-5.034453 46.46875,-5.3125 z m 21.15625,4.78125 c 0.91036,0.0017 1.94011,0.02854 3.09375,0.09375 -4.18575,6.353261 -16.7491,-0.119167 -3.09375,-0.09375 z m -20.03125,1.46875 c 6.29783,-0.08983 6.29524,0.945924 5.375,1.5625 4.85924,-0.692522 6.69672,-2.045185 12.3125,2.59375 -13.38489,-2.866565 -43.48214,2.907599 -45.9375,-2.09375 9.33547,-1.486122 18.80106,-2.093227 28.25,-2.0625 z m 5.375,1.5625 c -0.46334,0.06603 -0.91274,0.139253 -1.4375,0.1875 -0.25801,0.473433 0.80156,0.238589 1.4375,-0.1875 z m -59.59375,-1 c 1.0021,-0.04335 1.36037,0.09624 0.78125,0.46875 -16.89171,7.550835 -35.23228,9.25065 -53.34375,11.34375 -21.5061,4.447846 18.51681,-10.149656 27.78125,-7.84375 4.0511,-0.390011 20.4388,-3.780891 24.78125,-3.96875 z m -51.5625,3.0625 c 12.7918,1.280341 -10.286,9.302628 -15.03125,2.1875 -12.57294,-2.425933 13.26929,-1.715746 15.03125,-2.1875 z m 111.46875,1.3125 c 8.42922,-0.18374 26.52457,4.048617 8.75,3.34375 -7.42834,1.668805 -27.84269,0.614219 -26.28125,-2.78125 5.32897,-0.30797 10.66211,-0.454258 16,-0.46875 0.46265,-0.05432 0.9693,-0.0815 1.53125,-0.09375 z m -197,14.46875 c -12.59019,2.402862 -27.567135,0.02559 -39.5625,3.5 0.0068,0.134257 -0.01866,0.282337 -0.09375,0.4375 -0.269303,-0.06711 -0.562006,-0.099 -0.84375,-0.15625 0.308009,-0.09858 0.625337,-0.190833 0.9375,-0.28125 -0.157094,-3.097763 -21.315391,-0.766035 -27.625,1.1875 2.896023,0.240989 17.691168,-2.694675 26.625,-0.90625 -0.817947,0.263383 -1.620186,0.548891 -2.40625,0.875 14.599088,0.984412 28.748278,-3.78629 43.3125,-2.1875 0.0074,-0.205989 0.03125,-0.489834 0.03125,-0.53125 0,-0.209391 -9.96e-4,-0.275232 0,-0.3125 -0.02421,0.0344 -0.126756,0.121488 -0.375,-0.375 -0.0691,-0.138191 0.01056,-0.922019 0,-1.25 z m 0.34375,2.84375 c -8.811838,0.937023 -33.120736,2.421153 -13.90625,3 -6.446016,2.525131 -30.612858,-2.594901 -27.46875,3.40625 5.662508,-0.566686 18.504312,-4.10351 9.5,0.25 9.390476,0.521 22.955376,-2.240098 33.34375,-0.59375 0.0021,-0.09281 0.01825,-0.137997 0,-0.15625 -0.08418,-0.08418 -0.29082,0.08418 -0.375,0 -0.168358,-0.168358 0.10648,-0.505792 0,-0.71875 -0.07529,-0.150585 -0.268458,-0.224416 -0.34375,-0.375 -0.0127,-0.02539 0.0051,-0.10584 0,-0.15625 -2.790426,0.474014 -9.342702,-0.02845 -6.78125,-2.5 3.551109,0.46186 5.6545,0.899338 6.8125,1.28125 0.0064,-0.186195 3.3e-5,-0.343683 -0.03125,-0.40625 -0.07529,-0.150584 -0.299708,-0.193166 -0.375,-0.34375 -0.112236,-0.224473 0.112236,-1.213028 0,-1.4375 -0.07529,-0.150585 -0.268458,-0.193165 -0.34375,-0.34375 -0.03813,-0.07627 -0.04078,-0.496536 -0.03125,-0.90625 z m -71.15625,0.3125 c 2.204889,6.048996 -34.910878,1.74737 -14.15625,5.65625 3.920741,-0.585512 25.052138,-0.515243 14.15625,-5.65625 z m 101.15625,1.375 c 0.004,0.09992 0.0312,0.240916 0.0312,0.28125 0,0.119047 -0.0842,0.25957 0,0.34375 0.0842,0.08418 0.25957,-0.08418 0.34375,0 0.0842,0.08418 -0.0842,0.29082 0,0.375 0.0842,0.08418 0.29082,-0.08418 0.375,0 0.16836,0 0.26846,0.193166 0.34375,0.34375 0.0532,0.10648 0,0.255953 0,0.375 0,0.357143 0.11294,0.723684 0,1.0625 -0.0753,0.225877 -0.50579,-0.10648 -0.71875,0 -0.11602,0.05801 -0.19975,0.144082 -0.28125,0.25 1.84387,-0.10814 3.22466,-0.689345 2.375,-1.6875 -1.10309,-0.444016 -1.91585,-0.898583 -2.46875,-1.34375 z m -73.71875,0.25 0.125,0.09375 z m 32.8125,1.34375 c 6.630456,0.468954 -5.951866,2.251517 0,0 z m 89.09375,5.125 c 4.57116,2.504105 -7.36799,1.381821 -0.96875,0.09375 z"
         transform="translate(0,-2e-5)"
         inkscape:connector-curvature="0"
         sodipodi:nodetypes="ccccccccccccccccccccccccccccccccccccccccccccssscccscscssccsccscccssccccccccccccccccccccccccccccccccccccccccccccccccccccccccccccccccccccccccccccccccccccccccccccccccccccccccccccccccccccccccccccccccccccccccccccccccccccccccccccccccccccccccccccccccccccccscsccccccccccscccccscccccccccccccccccccccccccccscccccsccscccccsccccscsccccccccscccscccscccscccccccccscccccccccscccccsscccccccsscsccscscccccccccccc" />
      <path
         style="fill:none;stroke:#000000;stroke-width:1px;stroke-linecap:butt;stroke-linejoin:miter;stroke-opacity:1"
         d="m 440.42651,70.432567 c -7.61476,1.907599 -15.65765,2.490934 -23.39365,3.873928 -8.60309,1.820915 -16.14053,7.102435 -25.00971,7.771839 -6.17023,1.807117 -12.2635,3.821124 -18.22465,6.183995 -6.78575,2.633641 -14.38958,2.499204 -20.71172,6.314866 -7.83282,0.504955 -13.29608,7.500955 -21.52447,6.159945 -6.14629,1.30179 -15.93806,-5.038074 -19.11299,2.75562 -5.12739,6.39284 10.98598,7.78082 3.98097,12.39667 -7.1785,2.37439 -13.15658,-3.44496 -19.30645,-5.96402 -8.66044,-3.18346 -18.02838,-1.46108 -27.05281,-1.86466 -4.06699,1.01686 -11.5078,3.60301 -10.57991,8.89853 3.09572,6.70566 10.39916,9.14591 17.16216,10.18346 1.18396,0.48434 2.26509,1.21608 3.15898,2.13121"
         id="skipath"
         inkscape:connector-curvature="0"
         inkscape:label="#path5642" />
      <path
         transform="translate(13.214286,8.9285514)"
         style="fill:none;stroke:#000000;stroke-width:1px;stroke-linecap:butt;stroke-linejoin:miter;stroke-opacity:1"
         d="m 287.85715,20.799717 c 1.34299,0.752076 -0.3512,2.181376 -1.25,2.232143 -2.4357,0.137575 -14.34656,-4.837315 -13.92858,-6.875001 0.74767,-3.644941 15.62825,-3.079489 18.92858,-2.05357 4.84337,1.505577 6.84835,7.159512 5.17857,11.696429 -2.22556,6.046997 -9.41379,8.488987 -15.17857,6.160712 -7.25439,-2.929896 -25.4942,-11.672095 -22.5,-18.660715 3.62638,-8.4641544 29.28978,-11.789408 37.5,-8.1249967 9.67545,4.318382 13.44444,16.1945837 9.10714,25.6250007 -5.00759,10.887791 -18.45746,15.101264 -29.10715,10.089282 -12.10085,-5.694933 -32.11647,-21.078124 -26.42856,-32.94643 6.38098,-13.3144459 42.98499,-15.9183253 56.07143,-9.5535662 1.81605,0.8832612 4.0331,1.4045139 6.50878,1.66839722 2.47567,0.26388332 32.35282,16.34182598 35.20335,16.19560898 2.85053,-0.146216 25.10302,-13.6594482 28.04365,-14.006486 2.94063,-0.3470378 24.06941,-0.7421668 26.81537,-1.0807478 2.74597,-0.33858107 19.60913,21.1650998 21.87568,21.0442538 2.26654,-0.120846 -90.45071,2.317883 -88.91831,2.368519 20.0738,0.66331 -19.87785,0.0372 -20.9237,0.0349 -58.8323,-0.12897 -27.54597,-3.458904 -28.42626,-1.670876"
         id="birdpath"
         inkscape:label="#path7627"
         inkscape:connector-curvature="0"
         sodipodi:nodetypes="cssssssssssssssssssc" />
    </g>
  </g>
</svg>
