<?xml version="1.0" encoding="UTF-8" standalone="no"?>
<!-- Created with Inkscape (http://www.inkscape.org/) -->

<svg
   xmlns:dc="http://purl.org/dc/elements/1.1/"
   xmlns:cc="http://creativecommons.org/ns#"
   xmlns:rdf="http://www.w3.org/1999/02/22-rdf-syntax-ns#"
   xmlns:svg="http://www.w3.org/2000/svg"
   xmlns="http://www.w3.org/2000/svg"
   xmlns:sodipodi="http://sodipodi.sourceforge.net/DTD/sodipodi-0.dtd"
   xmlns:inkscape="http://www.inkscape.org/namespaces/inkscape"
   width="32.673401"
   height="48.219498"
   id="svg4731"
   version="1.1"
   inkscape:version="0.48.0 r9654"
   sodipodi:docname="tree2.svg">
  <defs
     id="defs4733" />
  <sodipodi:namedview
     id="base"
     pagecolor="#ffffff"
     bordercolor="#666666"
     borderopacity="1.0"
     inkscape:pageopacity="0.0"
     inkscape:pageshadow="2"
     inkscape:zoom="2.8"
     inkscape:cx="-39.624389"
     inkscape:cy="23.06026"
     inkscape:document-units="px"
     inkscape:current-layer="layer1"
     showgrid="false"
     fit-margin-top="0"
     fit-margin-left="0"
     fit-margin-right="0"
     fit-margin-bottom="0"
     inkscape:window-width="862"
     inkscape:window-height="726"
     inkscape:window-x="570"
     inkscape:window-y="25"
     inkscape:window-maximized="0" />
  <metadata
     id="metadata4736">
    <rdf:RDF>
      <cc:Work
         rdf:about="">
        <dc:format>image/svg+xml</dc:format>
        <dc:type
           rdf:resource="http://purl.org/dc/dcmitype/StillImage" />
        <dc:title></dc:title>
      </cc:Work>
    </rdf:RDF>
  </metadata>
  <g
     inkscape:label="Layer 1"
     inkscape:groupmode="layer"
     id="layer1"
     transform="translate(-358.6963,-508.25)">
    <path
       style="fill:#ffecff;stroke:#000000;stroke-width:1px;stroke-linecap:butt;stroke-linejoin:miter;stroke-opacity:1;fill-opacity:1;opacity:1"
       d="M 13.214286,31.790926 2.8571429,25.005212 2.1428571,13.57664 10.714286,3.2194976 19.642857,2.8623548 26.071429,13.933783 30.714286,24.290926 15,31.790926 z"
       id="path4814"
       inkscape:connector-curvature="0"
       transform="translate(358.6963,508.25)" />
    <path
       inkscape:connector-curvature="0"
       style="fill:#000000;fill-opacity:1;stroke:#000000;stroke-opacity:1"
       d="m 374.16009,508.75555 c -8.43602,0.29008 -17.50172,9.43965 -14.40625,19.875 -0.12393,0.0247 -0.2506,0.0388 -0.375,0.0625 0.0106,0.32798 -0.0691,1.11181 0,1.25 0.24824,0.49649 0.35079,0.4094 0.375,0.375 -0.001,0.0373 0,0.10311 0,0.3125 0,0.0414 -0.0239,0.32526 -0.0312,0.53125 0.55666,0.0611 1.09831,0.10706 1.65625,0.1875 -0.4128,0.0536 -1.10703,0.1291 -1.65625,0.1875 -0.01,0.40972 -0.007,0.82999 0.0312,0.90625 0.0753,0.15059 0.26846,0.19317 0.34375,0.34375 0.11223,0.22447 -0.11224,1.21303 0,1.4375 0.0753,0.15059 0.29971,0.19317 0.375,0.34375 0.0313,0.0626 0.0376,0.22006 0.0312,0.40625 1.72646,0.56939 1.28761,0.99471 -0.0312,1.21875 0.005,0.0504 -0.0127,0.13086 0,0.15625 0.0753,0.15059 0.26846,0.22442 0.34375,0.375 0.10648,0.21296 -0.16836,0.55039 0,0.71875 0.0842,0.0842 0.29082,-0.0842 0.375,0 0.0182,0.0183 0.002,0.0634 0,0.15625 4.567,0.72378 8.51295,2.29604 11.21875,5.375 -1.67765,6.73375 -0.18997,21.30726 1.25,6.78125 -1.02495,-9.11341 2.01524,-17.13159 1.21875,-2.5 -0.38031,19.3272 1.19562,-5.4752 3,-9.53125 5.50776,0.0499 -12.34768,-3.9656 1.375,-3.9375 -7.32147,-0.31544 -7.6827,-5.1603 -0.21875,-2.46875 -7.62619,-6.78865 -10.51017,-0.7259 -8.34375,6.25 -10.02741,1.3956 -2.77245,-8.44415 -10.0625,-12.8125 4.07827,-4.72506 3.9583,-14.17322 12.09375,-13.78125 3.64359,-1.87474 5.51769,5.65888 9.09375,5 1.40944,6.83874 -0.6577,9.10675 6.0625,13.5 -7.76232,5.09815 -1.89226,7.00586 1.9375,6.78125 0.0815,-0.10592 0.16523,-0.19199 0.28125,-0.25 0.21296,-0.10648 0.64345,0.22588 0.71875,0 0.11294,-0.33881 0,-0.70536 0,-1.0625 0,-0.11905 0.0532,-0.26852 0,-0.375 -0.0753,-0.15058 -0.17539,-0.34375 -0.34375,-0.34375 -0.0842,-0.0842 -0.2908,0.0842 -0.375,0 -0.0842,-0.0842 0.0842,-0.29082 0,-0.375 -0.0842,-0.0842 -0.25955,0.0842 -0.34375,0 -0.0842,-0.0842 0,-0.2247 0,-0.34375 0,-0.0403 -0.027,-0.18133 -0.0312,-0.28125 -1.70616,-1.37371 -1.01698,-2.68465 0.40625,-3.53125 0.002,-0.0457 3.3e-4,-0.0934 -0.0312,-0.125 -0.0842,-0.0842 -0.25955,0.0842 -0.34375,0 -0.17858,-0.17857 0.17857,-0.88393 0,-1.0625 -0.0842,-0.0842 -0.2908,0.0842 -0.375,0 -0.0842,-0.0842 0.0842,-0.29082 0,-0.375 -0.16836,-0.16836 -0.51914,0.16836 -0.6875,0 -0.0842,-0.0842 0.0842,-0.25957 0,-0.34375 -0.0842,-0.0842 -0.2908,0.0842 -0.375,0 -0.0842,-0.0842 0.0842,-0.25957 0,-0.34375 -0.0842,-0.0842 -0.25955,0.0842 -0.34375,0 -0.16836,-0.16836 0.16836,-0.55039 0,-0.71875 -0.0842,-0.0842 -0.3218,0.10648 -0.375,0 -0.0665,-0.13291 -0.053,-0.28375 -0.0312,-0.4375 0.006,0.0428 0.001,0.0625 0.0312,0.0625 0.11905,0 0,-0.2247 0,-0.34375 0,-0.11905 0.0842,-0.29082 0,-0.375 -0.0842,-0.0842 -0.25955,0.0842 -0.34375,0 -0.0842,-0.0842 0.0842,-0.25957 0,-0.34375 -0.0842,-0.0842 -0.2908,0.0842 -0.375,0 -0.0842,-0.0842 0.0532,-0.23727 0,-0.34375 -0.0753,-0.15058 -0.26845,-0.22441 -0.34375,-0.375 -0.0532,-0.10648 0.0842,-0.25957 0,-0.34375 -0.0842,-0.0842 -0.25955,0.0842 -0.34375,0 -0.0842,-0.0842 0,-0.25595 0,-0.375 l 0,-0.34375 c 0,-0.27778 -0.003,-0.19669 0,-0.21875 -0.46123,0.18116 -0.75879,-0.345 -0.9375,-2.125 -0.006,-0.004 0.006,-0.0268 0,-0.0312 -0.0513,-0.0398 -0.12801,-0.0685 -0.15625,-0.125 -0.10648,-0.21296 0.16836,-0.55039 0,-0.71875 -0.0842,-0.0842 -0.25955,0.0842 -0.34375,0 -0.16836,-0.16836 0.10648,-0.50579 0,-0.71875 -0.0753,-0.15058 -0.2997,-0.19316 -0.375,-0.34375 -0.5255,-1.051 0.84074,0.46575 -0.34375,-0.71875 -0.0469,-0.0939 0,-1.25074 0,-1.4375 0,-0.18676 -0.0469,-1.34359 0,-1.4375 0.0753,-0.15058 0.26845,-0.19316 0.34375,-0.34375 0.0137,-0.0273 0.0247,-0.0629 0.0312,-0.0937 -2.3558,-4.69073 -6.23285,-6.57563 -10.25,-6.4375 z m -12.46875,24.0625 c 0.25534,-0.009 0.54168,-0.0193 0.875,0 l 0.3125,0 c -0.49511,3.07318 -5.01763,0.12763 -1.1875,0 z"
       id="path4170" />
    <path
       id="path3073"
       d="m 376.39222,525.1359 c -2.763,0.634 -4.575,2.219 -8.249,1.941 1.236,-1.809 6.327,-5.402 8.249,-1.941 z"
       style="fill-rule:evenodd"
       inkscape:connector-curvature="0" />
    <path
       id="path3071"
       d="m 372.49561,519.76632 c 0.53,2.309 -1.579,1.98 -3.396,1.941 0.618,-1.162 1.582,-1.976 3.396,-1.941 z"
       style="fill-rule:evenodd"
       inkscape:connector-curvature="0" />
  </g>
</svg>
