<?xml version="1.0" encoding="UTF-8" standalone="no"?>
<!-- Created with Inkscape (http://www.inkscape.org/) -->

<svg
   xmlns:dc="http://purl.org/dc/elements/1.1/"
   xmlns:cc="http://creativecommons.org/ns#"
   xmlns:rdf="http://www.w3.org/1999/02/22-rdf-syntax-ns#"
   xmlns:svg="http://www.w3.org/2000/svg"
   xmlns="http://www.w3.org/2000/svg"
   xmlns:sodipodi="http://sodipodi.sourceforge.net/DTD/sodipodi-0.dtd"
   xmlns:inkscape="http://www.inkscape.org/namespaces/inkscape"
   width="30.064466"
   height="43.18177"
   id="svg4108"
   version="1.1"
   inkscape:version="0.48.0 r9654"
   sodipodi:docname="tree.svg">
  <defs
     id="defs4110" />
  <sodipodi:namedview
     id="base"
     pagecolor="#ffffff"
     bordercolor="#666666"
     borderopacity="1.0"
     inkscape:pageopacity="0.0"
     inkscape:pageshadow="2"
     inkscape:zoom="3.959798"
     inkscape:cx="14.503131"
     inkscape:cy="25.672659"
     inkscape:document-units="px"
     inkscape:current-layer="layer1"
     showgrid="false"
     fit-margin-top="0"
     fit-margin-left="0"
     fit-margin-right="-0.4"
     fit-margin-bottom="0"
     inkscape:window-width="1008"
     inkscape:window-height="779"
     inkscape:window-x="367"
     inkscape:window-y="68"
     inkscape:window-maximized="0" />
  <metadata
     id="metadata4113">
    <rdf:RDF>
      <cc:Work
         rdf:about="">
        <dc:format>image/svg+xml</dc:format>
        <dc:type
           rdf:resource="http://purl.org/dc/dcmitype/StillImage" />
        <dc:title></dc:title>
      </cc:Work>
    </rdf:RDF>
  </metadata>
  <g
     inkscape:label="Layer 1"
     inkscape:groupmode="layer"
     id="layer1"
     transform="translate(-359.76768,-510.7713)">
    <path
       style="fill:#ffffff;stroke:#000000;stroke-width:1px;stroke-linecap:butt;stroke-linejoin:miter;stroke-opacity:1;fill-opacity:1;opacity:1"
       d="M 14.142136,22.473643 10.606602,21.716029 9.0913729,18.685571 3.5355339,16.665266 1.5152288,8.5840456 7.323606,3.5332829 l 9.596449,-2.0203051 2.77792,4.7982246 3.535534,-0.7576144 6.060915,7.071068 -2.020305,5.050763 -7.071068,5.808377 z"
       id="tree-contour"
       inkscape:connector-curvature="0"
       transform="translate(359.76768,510.7713)"
       inkscape:label="#path4703" />
    <path
       id="treebrush"
       d="m 378.28857,523.38307 c -2.963,-0.375 -4.541,0.636 -7.279,0.485 0.275,-2.008 7.523,-3.995 7.279,-0.485 z"
       style="fill-rule:evenodd"
       inkscape:connector-curvature="0"
       inkscape:label="#path3077">
      <title
         id="title5324">treebrushnm</title>
    </path>
    <path
       id="path3081"
       d="m 380.71457,527.26407 c -2.658,-1.276 -6.613,0.448 -8.734,-0.485 1.46,-1.798 8.562,-3.25 8.734,0.485 z"
       style="fill-rule:evenodd"
       inkscape:connector-curvature="0" />
    <path
       id="path3087"
       d="m 381.68457,530.17707 c -1.33,0.579 -3.091,-1.159 -4.852,0.484 0.208,0.925 1.045,1.22 0.97,2.427 1.768,-0.15 3.158,0.077 4.367,0.485 -1.201,3.038 -1.392,7.744 -1.456,12.131 -0.058,4.005 1.701,7.741 -3.882,8.249 -1.476,-6.475 2.711,-16.395 -2.426,-20.865 -1.375,0.081 -2.022,0.89 -3.397,0.971 -1.473,-1.068 -3.438,-2.729 -2.426,-4.853 1.832,0.432 1.13,3.398 3.882,2.911 1.516,0.222 1.551,-1.037 1.456,-2.426 1.998,-0.391 7.26,-3.536 7.764,0.486 z m -2.911,18.438 c 0.379,-3.463 2.626,-11.302 -0.485,-13.587 1.631,4.559 -0.843,8.726 0.485,13.587 z"
       style="fill-rule:evenodd"
       inkscape:connector-curvature="0" />
    <path
       inkscape:connector-curvature="0"
       style="fill-rule:evenodd;fill:#000000;fill-opacity:1"
       d="m 377.79132,510.7713 c -3.76,0.319 -4.95775,2.8045 -9.21875,1.4375 -2.562,2.128 -6.11675,3.25575 -8.71875,5.34375 -0.16419,3.09108 -0.15161,6.00717 0.5625,8.21875 0.0108,0.0103 0.023,0.0189 0.0312,0.0312 0.0522,0.0783 0.0728,0.20294 0.125,0.28125 0.0991,0.14858 0.26785,0.23214 0.375,0.375 0.0565,0.0753 0.0584,0.18345 0.125,0.25 0.0666,0.0666 0.19779,0.0467 0.25,0.125 0.0467,0.07 -0.0266,0.17014 0,0.25 0.0188,0.0565 0.0829,0.0829 0.125,0.125 0.0421,0.0421 0.0755,0.092 0.125,0.125 0.0783,0.0522 0.17169,0.0728 0.25,0.125 0.10895,0.0726 0.27637,0.27637 0.375,0.375 0.0421,0.0421 0.0718,0.0984 0.125,0.125 0.0377,0.0188 0.0952,-0.0298 0.125,0 0.0298,0.0298 -0.0188,0.0874 0,0.125 0.26274,0.5255 0.02,-0.13626 0.28125,0.125 0.0298,0.0298 -0.0298,0.0952 0,0.125 0.0298,0.0298 0.0874,-0.0188 0.125,0 0.0532,0.0266 0.0718,0.0984 0.125,0.125 0.0377,0.0188 0.0952,-0.0298 0.125,0 0.0298,0.0298 -0.0298,0.0952 0,0.125 0.0666,0.0666 0.17169,0.0728 0.25,0.125 0.0495,0.033 0.0718,0.0984 0.125,0.125 0.0377,0.0188 0.0952,-0.0298 0.125,0 0.0666,0.0666 0.0584,0.18345 0.125,0.25 0.0595,0.0595 0.19048,-0.0595 0.25,0 0.0298,0.0298 -0.0298,0.12649 0,0.15625 0.0298,0.0298 0.0874,-0.0188 0.125,0 0.0532,0.0266 0.0718,0.0984 0.125,0.125 0.0377,0.0188 0.0874,-0.0188 0.125,0 0.0532,0.0266 0.0718,0.0984 0.125,0.125 0.0377,0.0188 0.0952,-0.0298 0.125,0 0.0223,0.0223 0.003,0.061 0,0.0937 0.51795,-0.1253 1.04693,-0.2414 1.5625,-0.375 -1.445,-2.116 -3.463,-1.606 -4.375,-4.375 -0.567,-1.719 0.68775,-4.81125 0.46875,-6.78125 1.951,-0.334 2.777,0.44775 4.375,0.46875 0.083,-1.372 -0.41925,-3.308 0.96875,-3.375 2.476,-1.542 2.86,1.1385 4.875,1.4375 0.568,-1.697 1.026,-3.49025 3.875,-2.90625 1.323,0.457 1.0925,2.441 1.4375,3.875 1.416,0.595 3.96775,-0.556 5.84375,0.5 0.552,3.33 3.65575,4.08725 4.34375,7.28125 -0.829,2.243 -3.42075,2.69375 -4.84375,4.34375 2.313,1.55475 3.19118,-0.39502 4.625,-1.40625 0.0192,-0.0135 0.0431,-0.0181 0.0625,-0.0312 0.0111,-0.01 0.0179,-0.0246 0.0312,-0.0312 0.063,-0.0418 0.12202,-0.0874 0.1875,-0.125 -0.017,-0.0154 -0.003,-0.0597 0.0625,-0.125 0.0298,-0.0298 0.0874,0.0188 0.125,0 0.11621,-0.0581 0.13324,-0.10761 0.15625,-0.125 -0.0668,0.002 -0.16188,0.006 -0.0312,-0.125 0.0298,-0.0298 0.0952,0.0298 0.125,0 0.0298,-0.0298 -0.0188,-0.0874 0,-0.125 0.0266,-0.0532 0.0829,-0.0829 0.125,-0.125 0.0421,-0.0421 0.0718,-0.0984 0.125,-0.125 0.0377,-0.0188 0.0952,0.0298 0.125,0 0.0298,-0.0298 -0.0188,-0.0874 0,-0.125 0.0266,-0.0532 0.0984,-0.0718 0.125,-0.125 0.0188,-0.0376 -0.0188,-0.0874 0,-0.125 0.0266,-0.0532 0.0984,-0.0718 0.125,-0.125 0.0188,-0.0376 -0.0298,-0.0952 0,-0.125 0.0298,-0.0298 0.0952,0.0298 0.125,0 0.0298,-0.0298 -0.0188,-0.0874 0,-0.125 0.0266,-0.0532 0.0829,-0.0829 0.125,-0.125 0.0421,-0.0421 0.0718,-0.0984 0.125,-0.125 0.0377,-0.0188 0.0952,0.0298 0.125,0 0.0298,-0.0298 -0.0298,-0.0952 0,-0.125 0.0298,-0.0298 0.0952,0.0298 0.125,0 0.0298,-0.0298 -0.0298,-0.0952 0,-0.125 0.26123,-0.26126 -0.0127,0.36925 0.25,-0.15625 0.0188,-0.0376 -0.0298,-0.0952 0,-0.125 -0.0104,10e-4 -0.0209,-10e-4 -0.0312,0 -0.005,-1.289 0.168,-2.749 -0.5,-3.375 -3.458,-2.087 -3.75875,-9.23225 -9.71875,-7.28125 -0.818,-1.284 -1.1195,-3.091 -1.9375,-4.375 z m 12.4375,15 c -0.0425,0.005 -0.0825,0.0263 -0.125,0.0312 0.0482,0.0149 0.0952,0.0298 0.125,0 0.007,-0.007 9.3e-4,-0.0203 0,-0.0312 z"
       id="path3141" />
  </g>
</svg>
